<svg width="18" height="18" viewBox="0 0 18 18" fill="none" xmlns="http://www.w3.org/2000/svg">
<path d="M15.0463 14.0234C15.8541 13.0515 16.416 11.8993 16.6843 10.6643C16.9527 9.42927 16.9196 8.1478 16.5879 6.92828C16.2563 5.70875 15.6358 4.58705 14.7789 3.65805C13.9221 2.72905 12.8541 2.02009 11.6653 1.59115C10.4765 1.1622 9.20185 1.02589 7.94923 1.19374C6.69661 1.36159 5.50284 1.82866 4.4689 2.55545C3.43497 3.28224 2.5913 4.24736 2.00925 5.36917C1.4272 6.49098 1.1239 7.73647 1.125 9.00029C1.12548 10.8375 1.7729 12.6159 2.95369 14.0234L2.94244 14.033C2.98182 14.0802 3.02682 14.1207 3.06732 14.1674C3.11794 14.2254 3.1725 14.2799 3.22482 14.3362C3.38157 14.5075 3.54469 14.6707 3.71419 14.8255C3.76669 14.872 3.81919 14.9174 3.87169 14.9617C4.05169 15.1173 4.23732 15.2639 4.42857 15.4015C4.45332 15.4184 4.47582 15.4404 4.50057 15.4578V15.451C5.81797 16.3782 7.3896 16.8758 9.00057 16.8758C10.6115 16.8758 12.1832 16.3782 13.5006 15.451V15.4578C13.5253 15.4404 13.5473 15.4184 13.5726 15.4015C13.7638 15.2635 13.9494 15.1169 14.1294 14.9617C14.1819 14.917 14.2344 14.8717 14.2869 14.8255C14.4561 14.6707 14.6192 14.5075 14.7763 14.3362C14.8286 14.2799 14.8826 14.2254 14.9338 14.1674C14.9738 14.1207 15.0193 14.0802 15.0587 14.0324L15.0463 14.0234ZM9 4.50029C9.50064 4.50029 9.99003 4.64875 10.4063 4.92689C10.8226 5.20502 11.147 5.60035 11.3386 6.06288C11.5302 6.5254 11.5803 7.03435 11.4826 7.52537C11.3849 8.01638 11.1439 8.4674 10.7899 8.82141C10.4359 9.17541 9.98484 9.41649 9.49383 9.51416C9.00281 9.61182 8.49386 9.5617 8.03134 9.37011C7.56881 9.17853 7.17348 8.85409 6.89535 8.43783C6.61721 8.02157 6.46875 7.53218 6.46875 7.03154C6.46875 6.36021 6.73544 5.71638 7.21014 5.24168C7.68484 4.76698 8.32867 4.50029 9 4.50029ZM4.50394 14.0234C4.5137 13.2848 4.81385 12.5798 5.33945 12.0608C5.86506 11.5418 6.57386 11.2507 7.3125 11.2503H10.6875C11.4261 11.2507 12.1349 11.5418 12.6606 12.0608C13.1862 12.5798 13.4863 13.2848 13.4961 14.0234C12.2624 15.1351 10.6606 15.7503 9 15.7503C7.33936 15.7503 5.73759 15.1351 4.50394 14.0234Z" fill="#828282"/>
</svg>
