<svg width="38" height="38" viewBox="0 0 38 38" fill="none" xmlns="http://www.w3.org/2000/svg">
<rect width="38" height="38" rx="7" fill="#ED640F"/>
<path d="M13.5733 13.6153L11.8583 11.8852M22.7188 13.6153L24.4338 11.8852M11.8572 24.5785L13.5722 22.8472M18.1455 11.3088V9M11.2855 18.2318H9M23.1875 23.142L27.6372 21.385C27.7445 21.342 27.8366 21.2679 27.9014 21.1721C27.9662 21.0764 28.0008 20.9634 28.0008 20.8478C28.0008 20.7321 27.9662 20.6191 27.9014 20.5234C27.8366 20.4276 27.7445 20.3535 27.6372 20.3105L16.9447 16.093C16.8406 16.0527 16.727 16.0437 16.6178 16.0669C16.5087 16.0902 16.4087 16.1448 16.33 16.224C16.2514 16.3033 16.1976 16.4037 16.1752 16.513C16.1528 16.6224 16.1627 16.7359 16.2038 16.8397L20.3828 27.6325C20.5718 28.1225 21.2578 28.1225 21.4468 27.6325L23.1875 23.142Z" stroke="white" stroke-width="1.5" stroke-linecap="round" stroke-linejoin="round"/>
</svg>
