<svg width="38" height="38" viewBox="0 0 38 38" fill="none" xmlns="http://www.w3.org/2000/svg">
<rect width="38" height="38" rx="7" fill="#ED640F"/>
<path d="M14.4177 19H17.8552C18.9295 19 19.9378 18.6333 20.6611 18.0128C21.077 17.665 21.3959 17.2157 21.5869 16.7083H14.4167C14.1736 16.7083 13.9405 16.6118 13.7686 16.4398C13.5967 16.2679 13.5001 16.0348 13.5001 15.7917C13.5001 15.5486 13.5967 15.3154 13.7686 15.1435C13.9405 14.9716 14.1736 14.875 14.4167 14.875H21.5869C21.3959 14.3677 21.077 13.9183 20.6611 13.5706C19.9369 12.9509 18.9295 12.5833 17.8552 12.5833H14.4167C14.1736 12.5833 13.9405 12.4868 13.7686 12.3148C13.5967 12.1429 13.5001 11.9098 13.5001 11.6667C13.5001 11.4236 13.5967 11.1904 13.7686 11.0185C13.9405 10.8466 14.1736 10.75 14.4167 10.75H17.8542L18.0192 10.7518L18.0834 10.75H24.5001C24.7432 10.75 24.9764 10.8466 25.1483 11.0185C25.3202 11.1904 25.4167 11.4236 25.4167 11.6667C25.4167 11.9098 25.3202 12.1429 25.1483 12.3148C24.9764 12.4868 24.7432 12.5833 24.5001 12.5833H22.2772C22.8835 13.2217 23.3027 14.0145 23.489 14.875H24.5001C24.7432 14.875 24.9764 14.9716 25.1483 15.1435C25.3202 15.3154 25.4167 15.5486 25.4167 15.7917C25.4167 16.0348 25.3202 16.2679 25.1483 16.4398C24.9764 16.6118 24.7432 16.7083 24.5001 16.7083H23.489C23.2727 17.7414 22.6961 18.6828 21.8546 19.4043C20.7729 20.331 19.3328 20.8333 17.8542 20.8333H16.9027L22.5292 25.6367C22.7075 25.7964 22.8163 26.0196 22.8322 26.2584C22.8481 26.4973 22.7699 26.7329 22.6144 26.9149C22.4589 27.0969 22.2383 27.2108 21.9999 27.2323C21.7615 27.2538 21.5241 27.1812 21.3385 27.03L13.8246 20.6161L13.8154 20.6078C13.6535 20.468 13.5458 20.2758 13.5111 20.0647C13.4764 19.8537 13.517 19.6371 13.6257 19.4528C13.7067 19.3148 13.8224 19.2003 13.9613 19.1209C14.1003 19.0414 14.2576 18.9998 14.4177 19Z" fill="white"/>
</svg>
