<svg width="38" height="38" viewBox="0 0 38 38" fill="none" xmlns="http://www.w3.org/2000/svg">
<rect width="38" height="38" rx="7" fill="#ED640F"/>
<path d="M15.3333 16.2498H22.6667M15.3333 19.9165H20.8333M24.5 11.6665C25.2293 11.6665 25.9288 11.9562 26.4445 12.472C26.9603 12.9877 27.25 13.6872 27.25 14.4165V21.7498C27.25 22.4792 26.9603 23.1787 26.4445 23.6944C25.9288 24.2101 25.2293 24.4998 24.5 24.4998H19.9167L15.3333 27.2498V24.4998H13.5C12.7707 24.4998 12.0712 24.2101 11.5555 23.6944C11.0397 23.1787 10.75 22.4792 10.75 21.7498V14.4165C10.75 13.6872 11.0397 12.9877 11.5555 12.472C12.0712 11.9562 12.7707 11.6665 13.5 11.6665H24.5Z" stroke="white" stroke-width="1.5" stroke-linecap="round" stroke-linejoin="round"/>
</svg>
