<svg width="38" height="38" viewBox="0 0 38 38" fill="none" xmlns="http://www.w3.org/2000/svg">
<rect width="38" height="38" rx="7" fill="#ED640F"/>
<path d="M27.7483 18.1247C28.027 18.5152 28.1663 18.7114 28.1663 19.0002C28.1663 19.2898 28.027 19.4851 27.7483 19.8756C26.4962 21.6319 23.2979 25.4168 18.9997 25.4168C14.7005 25.4168 11.5032 21.631 10.251 19.8756C9.97234 19.4851 9.83301 19.2889 9.83301 19.0002C9.83301 18.7105 9.97234 18.5152 10.251 18.1247C11.5032 16.3684 14.7014 12.5835 18.9997 12.5835C23.2988 12.5835 26.4962 16.3693 27.7483 18.1247Z" stroke="white" stroke-width="1.5" stroke-linecap="round" stroke-linejoin="round"/>
<path d="M21.75 19C21.75 18.2707 21.4603 17.5712 20.9445 17.0555C20.4288 16.5397 19.7293 16.25 19 16.25C18.2707 16.25 17.5712 16.5397 17.0555 17.0555C16.5397 17.5712 16.25 18.2707 16.25 19C16.25 19.7293 16.5397 20.4288 17.0555 20.9445C17.5712 21.4603 18.2707 21.75 19 21.75C19.7293 21.75 20.4288 21.4603 20.9445 20.9445C21.4603 20.4288 21.75 19.7293 21.75 19Z" stroke="white" stroke-width="1.5" stroke-linecap="round" stroke-linejoin="round"/>
</svg>
