<svg width="20" height="22" viewBox="0 0 20 22" fill="none" xmlns="http://www.w3.org/2000/svg">
<path d="M7.99166 1.51858C8.15353 1.11852 8.43117 0.775913 8.78902 0.534672C9.14686 0.293431 9.5686 0.164551 10.0002 0.164551C10.4317 0.164551 10.8535 0.293431 11.2113 0.534672C11.5691 0.775913 11.8468 1.11852 12.0087 1.51858C13.6109 1.95867 15.0243 2.91282 16.0315 4.23436C17.0387 5.55589 17.584 7.17165 17.5835 8.83325V13.9217L19.5682 16.8987C19.677 17.0618 19.7395 17.2515 19.7491 17.4474C19.7586 17.6433 19.7147 17.8381 19.6222 18.011C19.5297 18.1839 19.3919 18.3285 19.2237 18.4293C19.0554 18.5301 18.863 18.5833 18.6668 18.5833H13.7539C13.6235 19.4858 13.1722 20.3111 12.4828 20.908C11.7934 21.5049 10.9121 21.8335 10.0002 21.8335C9.08826 21.8335 8.20688 21.5049 7.51749 20.908C6.82809 20.3111 6.37685 19.4858 6.24641 18.5833H1.3335C1.13737 18.5833 0.944907 18.5301 0.776653 18.4293C0.608398 18.3285 0.470659 18.1839 0.378132 18.011C0.285605 17.8381 0.24176 17.6433 0.251276 17.4474C0.260792 17.2515 0.32331 17.0618 0.432162 16.8987L2.41683 13.9217V8.83325C2.41683 5.34058 4.7785 2.39825 7.99166 1.51858ZM8.46833 18.5833C8.58021 18.9003 8.78768 19.1748 9.06213 19.369C9.33658 19.5632 9.6645 19.6675 10.0007 19.6675C10.3369 19.6675 10.6648 19.5632 10.9393 19.369C11.2137 19.1748 11.4212 18.9003 11.5331 18.5833H8.46833ZM10.0002 3.41658C8.56357 3.41658 7.18582 3.98727 6.17 5.00309C5.15418 6.01891 4.5835 7.39666 4.5835 8.83325V14.2499C4.58354 14.4639 4.52021 14.6731 4.4015 14.8512L3.35825 16.4166H16.641L15.5977 14.8512C15.4794 14.673 15.4165 14.4638 15.4168 14.2499V8.83325C15.4168 7.39666 14.8461 6.01891 13.8303 5.00309C12.8145 3.98727 11.4368 3.41658 10.0002 3.41658Z" fill="#878787"/>
</svg>
