<svg width="15" height="14" viewBox="0 0 15 14" fill="none" xmlns="http://www.w3.org/2000/svg">
<path d="M7.74172 3.76074C9.63772 3.76074 11.2027 5.32569 11.2027 7.2217C11.2027 9.1478 9.63772 10.6827 7.74172 10.6827C5.81562 10.6827 4.28076 9.1478 4.28076 7.2217C4.28076 5.32569 5.81562 3.76074 7.74172 3.76074ZM7.74172 9.47885C8.97563 9.47885 9.96877 8.4857 9.96877 7.2217C9.96877 5.98779 8.97563 4.99464 7.74172 4.99464C6.47772 4.99464 5.48457 5.98779 5.48457 7.2217C5.48457 8.4857 6.50781 9.47885 7.74172 9.47885ZM12.1356 3.64035C12.1356 4.09178 11.7745 4.45293 11.3231 4.45293C10.8716 4.45293 10.5105 4.09178 10.5105 3.64035C10.5105 3.18892 10.8716 2.82778 11.3231 2.82778C11.7745 2.82778 12.1356 3.18892 12.1356 3.64035ZM14.4229 4.45293C14.4831 5.56645 14.4831 8.90704 14.4229 10.0206C14.3627 11.104 14.1219 12.0369 13.3394 12.8495C12.557 13.632 11.5939 13.8728 10.5105 13.933C9.39696 13.9931 6.05638 13.9931 4.94285 13.933C3.85942 13.8728 2.92647 13.632 2.11389 12.8495C1.33141 12.0369 1.09065 11.104 1.03046 10.0206C0.970271 8.90704 0.970271 5.56645 1.03046 4.45293C1.09065 3.3695 1.33141 2.40645 2.11389 1.62397C2.92647 0.841489 3.85942 0.600727 4.94285 0.540536C6.05638 0.480345 9.39696 0.480345 10.5105 0.540536C11.5939 0.600727 12.557 0.841489 13.3394 1.62397C14.1219 2.40645 14.3627 3.3695 14.4229 4.45293ZM12.9783 11.1943C13.3394 10.3215 13.2492 8.21484 13.2492 7.2217C13.2492 6.25865 13.3394 4.15197 12.9783 3.24912C12.7375 2.6773 12.2861 2.19578 11.7143 1.98511C10.8114 1.62397 8.70477 1.71425 7.74172 1.71425C6.74857 1.71425 4.6419 1.62397 3.76914 1.98511C3.16723 2.22587 2.7158 2.6773 2.47504 3.24912C2.11389 4.15197 2.20418 6.25865 2.20418 7.2217C2.20418 8.21484 2.11389 10.3215 2.47504 11.1943C2.7158 11.7962 3.16723 12.2476 3.76914 12.4884C4.6419 12.8495 6.74857 12.7592 7.74172 12.7592C8.70477 12.7592 10.8114 12.8495 11.7143 12.4884C12.2861 12.2476 12.7676 11.7962 12.9783 11.1943Z" fill="white"/>
</svg>
