<svg width="14" height="14" viewBox="0 0 14 14" fill="none" xmlns="http://www.w3.org/2000/svg">
<path d="M3.00965 14H0.210789V5.0015H3.00965V14ZM1.59517 3.79769C0.72241 3.79769 0.00012207 3.0453 0.00012207 2.14244C0.00012207 1.26968 0.72241 0.54739 1.59517 0.54739C2.49803 0.54739 3.22032 1.26968 3.22032 2.14244C3.22032 3.0453 2.49803 3.79769 1.59517 3.79769ZM13.4527 14H10.684V9.63618C10.684 8.58284 10.6539 7.25865 9.20929 7.25865C7.76472 7.25865 7.55405 8.37217 7.55405 9.54589V14H4.75518V5.0015H7.43367V6.23541H7.46376C7.855 5.54321 8.75786 4.79083 10.1122 4.79083C12.9411 4.79083 13.4828 6.65674 13.4828 9.06437V14H13.4527Z" fill="white"/>
</svg>
