<svg width="16" height="13" viewBox="0 0 16 13" fill="none" xmlns="http://www.w3.org/2000/svg">
<path d="M13.8139 3.09178C13.8139 3.24226 13.8139 3.36264 13.8139 3.51312C13.8139 7.69637 10.6539 12.4815 4.84547 12.4815C3.03975 12.4815 1.38451 11.9699 0.00012207 11.067C0.240885 11.0971 0.481647 11.1272 0.752505 11.1272C2.22718 11.1272 3.58147 10.6156 4.6649 9.77295C3.28051 9.74285 2.10679 8.83999 1.71556 7.57599C1.92622 7.60608 2.10679 7.63618 2.31746 7.63618C2.58832 7.63618 2.88927 7.57599 3.13004 7.5158C1.68546 7.21484 0.602029 5.95084 0.602029 4.41598V4.38588C1.02336 4.62665 1.53498 4.74703 2.0466 4.77712C1.17384 4.20531 0.632124 3.24226 0.632124 2.15883C0.632124 1.55692 0.7826 1.01521 1.05346 0.563777C2.61842 2.45978 4.96585 3.72379 7.58414 3.87426C7.52395 3.6335 7.49386 3.39274 7.49386 3.15197C7.49386 1.40645 8.90834 -0.00803424 10.6539 -0.00803424C11.5567 -0.00803424 12.3693 0.35311 12.9712 0.985111C13.6634 0.834635 14.3556 0.563777 14.9575 0.202633C14.7167 0.955016 14.2352 1.55692 13.5731 1.94816C14.2051 1.88797 14.8371 1.7074 15.3788 1.46664C14.9575 2.09864 14.4158 2.64035 13.8139 3.09178Z" fill="white"/>
</svg>
