<svg width="70" height="70" viewBox="0 0 70 70" fill="none" xmlns="http://www.w3.org/2000/svg">
<rect width="70" height="70" rx="10" fill="#FDF0E6"/>
<g clip-path="url(#clip0_2048_506)">
<path d="M17.1702 17.2394C17.3185 17.239 17.4669 17.2385 17.6152 17.2379C18.0217 17.2365 18.4283 17.2372 18.8349 17.2382C19.2737 17.2389 19.7126 17.2378 20.1514 17.2369C21.0107 17.2354 21.87 17.2357 22.7293 17.2367C23.4277 17.2374 24.1261 17.2375 24.8245 17.2372C24.9736 17.2371 24.9736 17.2371 25.1257 17.237C25.3277 17.2369 25.5296 17.2368 25.7316 17.2367C27.6251 17.2358 29.5186 17.2368 31.4121 17.2386C33.0368 17.2401 34.6614 17.2398 36.2861 17.2383C38.1729 17.2366 40.0596 17.2359 41.9464 17.2369C42.1476 17.237 42.3488 17.2371 42.55 17.2372C42.649 17.2372 42.7479 17.2373 42.8499 17.2373C43.5475 17.2376 44.245 17.2371 44.9426 17.2364C45.7926 17.2354 46.6427 17.2357 47.4928 17.2374C47.9265 17.2383 48.3602 17.2386 48.7939 17.2376C49.191 17.2366 49.5881 17.2371 49.9852 17.2389C50.1288 17.2392 50.2724 17.239 50.4159 17.2382C51.3521 17.2335 52.114 17.2922 52.8358 17.9502C53.232 18.4154 53.4689 19 53.4649 19.6098C53.4647 19.6818 53.4644 19.7538 53.4641 19.8279C53.4634 19.9066 53.4627 19.9853 53.462 20.0664C53.4614 20.1922 53.4614 20.1922 53.4608 20.3205C53.4599 20.5047 53.4587 20.6888 53.4574 20.873C53.4546 21.2776 53.4527 21.6821 53.4507 22.0867C53.4496 22.3047 53.4485 22.5226 53.4473 22.7405C53.443 23.5417 53.4406 24.343 53.4393 25.1442C53.4392 25.2022 53.4391 25.2602 53.439 25.32C53.4381 25.8585 53.4373 26.3971 53.4366 26.9356C53.4361 27.3049 53.4355 27.6742 53.4349 28.0435C53.4348 28.1048 53.4347 28.1662 53.4346 28.2293C53.4328 29.2216 53.4273 30.2138 53.4203 31.206C53.4133 32.2259 53.4107 33.2457 53.412 34.2656C53.4127 34.894 53.41 35.5221 53.4028 36.1505C53.3976 36.6331 53.3985 37.1156 53.4017 37.5983C53.402 37.7955 53.4004 37.9926 53.3967 38.1897C53.3574 39.4225 53.3574 39.4226 53.9512 40.453C54.1469 40.6349 54.3487 40.803 54.5654 40.9596C54.7554 41.132 54.8383 41.3176 54.8789 41.5687C54.8853 41.9285 54.8564 42.1619 54.6719 42.4749C54.5198 42.7475 54.5203 42.7779 54.5847 43.1107C54.805 43.4166 54.9081 43.4338 55.2615 43.4942C55.5618 43.5617 55.7602 43.7453 55.9271 43.9972C56.0834 44.4062 56.0269 44.877 56.0256 45.3111C56.0254 45.4938 56.0273 45.6765 56.0294 45.8592C56.0296 45.976 56.0296 46.0928 56.0295 46.2096C56.0299 46.3682 56.0299 46.3682 56.0303 46.53C55.9978 46.8301 55.9331 46.9831 55.7536 47.2225C55.4324 47.457 55.0891 47.6009 54.6872 47.5506C54.6754 47.6115 54.6635 47.6724 54.6513 47.7352C54.6052 47.9608 54.6052 47.9608 54.5386 48.1197C54.5025 48.311 54.5025 48.311 54.6821 48.5094C54.895 48.8513 54.937 49.1256 54.8513 49.5194C54.6188 50.0093 54.2988 50.353 53.9131 50.7293C53.8593 50.7834 53.8055 50.8374 53.7501 50.8931C53.1006 51.5354 53.1006 51.5354 52.6775 51.6028C52.2661 51.599 51.9888 51.5871 51.6521 51.3241C51.5979 51.297 51.5438 51.2699 51.488 51.242C51.3506 51.2949 51.2139 51.3497 51.0779 51.4061C50.9966 51.4061 50.9154 51.4061 50.8318 51.4061C50.8284 51.5025 50.825 51.599 50.8215 51.6983C50.772 52.1137 50.5597 52.36 50.2575 52.6366C49.8906 52.82 49.3632 52.7475 48.9561 52.7518C48.8298 52.7536 48.7036 52.7564 48.5773 52.7602C47.394 52.796 47.394 52.796 47.0205 52.4863C46.7177 52.1612 46.6482 51.8442 46.6482 51.4061C46.572 51.3942 46.4959 51.3824 46.4175 51.3702C46.156 51.3241 46.156 51.3241 45.9099 51.242C45.8744 51.2809 45.8388 51.3199 45.8022 51.3599C45.5226 51.6189 45.1764 51.6069 44.814 51.6048C44.4069 51.5397 44.0908 51.2666 43.8385 50.9486C43.6346 50.7827 43.491 50.8012 43.2302 50.8015C43.1328 50.8009 43.0353 50.8004 42.935 50.7999C42.8274 50.8005 42.7198 50.8012 42.609 50.8019C42.494 50.8018 42.379 50.8015 42.264 50.8011C41.9472 50.8005 41.6304 50.8013 41.3136 50.8024C40.9722 50.8033 40.6308 50.8027 40.2894 50.8024C39.6975 50.8019 39.1056 50.8023 38.5137 50.8032C37.657 50.8045 36.8002 50.804 35.9435 50.8031C34.5525 50.8015 33.1614 50.8008 31.7703 50.8008C31.687 50.8008 31.6037 50.8008 31.5179 50.8008C30.5891 50.8008 29.6603 50.8011 28.7314 50.8017C28.648 50.8017 28.5646 50.8018 28.4786 50.8018C28.3953 50.8019 28.3119 50.8019 28.2261 50.802C28.058 50.8021 27.89 50.8022 27.722 50.8023C27.6389 50.8024 27.5559 50.8024 27.4704 50.8025C26.0853 50.8033 24.7002 50.8025 23.3151 50.8005C22.4608 50.7993 21.6065 50.7995 20.7522 50.8014C20.1664 50.8026 19.5806 50.8023 18.9948 50.8009C18.657 50.8002 18.3191 50.8001 17.9813 50.8018C17.6716 50.8033 17.362 50.803 17.0523 50.8011C16.888 50.8006 16.7236 50.8022 16.5593 50.8038C15.7643 50.7961 15.1775 50.613 14.5842 50.0731C13.9715 49.3976 13.9521 48.6825 13.9575 47.8041C13.9571 47.6802 13.9565 47.5563 13.9558 47.4324C13.9543 47.0934 13.9548 46.7543 13.9556 46.4152C13.9562 46.049 13.9549 45.6828 13.9538 45.3166C13.9521 44.5997 13.9521 43.8828 13.9527 43.166C13.9533 42.5832 13.9532 42.0005 13.9526 41.4177C13.9525 41.2932 13.9525 41.2932 13.9524 41.1662C13.9523 40.9976 13.9521 40.829 13.9519 40.6604C13.9506 39.0799 13.9513 37.4995 13.9527 35.919C13.9539 34.4735 13.9527 33.0281 13.9503 31.5827C13.9479 30.0979 13.947 28.613 13.9478 27.1282C13.9479 26.9602 13.948 26.7922 13.948 26.6242C13.9481 26.5415 13.9481 26.4589 13.9482 26.3737C13.9483 25.7919 13.9475 25.21 13.9463 24.6281C13.9449 23.9188 13.9449 23.2094 13.9468 22.5C13.9477 22.1382 13.948 21.7765 13.9464 21.4147C13.945 21.0832 13.9456 20.7517 13.9476 20.4202C13.948 20.3006 13.9477 20.181 13.9466 20.0614C13.9394 19.179 14.0735 18.5295 14.6765 17.8656C15.4138 17.2006 16.2308 17.2342 17.1702 17.2394ZM15.6436 18.8028C15.6053 18.8505 15.567 18.8982 15.5276 18.9473C15.4682 19.0179 15.4682 19.0179 15.4077 19.0899C15.2111 19.4192 15.2199 19.7825 15.2196 20.1572C15.2194 20.2577 15.2191 20.3582 15.2188 20.4617C15.219 20.573 15.2191 20.6842 15.2192 20.7954C15.2191 20.9138 15.2189 21.0322 15.2187 21.1505C15.2182 21.4759 15.2182 21.8012 15.2183 22.1265C15.2183 22.4773 15.2178 22.8282 15.2175 23.179C15.2168 23.8663 15.2165 24.5537 15.2165 25.241C15.2165 25.7997 15.2163 26.3583 15.216 26.9169C15.2153 28.5004 15.2149 30.0838 15.215 31.6673C15.215 31.7527 15.215 31.8381 15.215 31.926C15.215 32.0115 15.215 32.097 15.215 32.1851C15.215 33.5707 15.2143 34.9564 15.2131 36.3421C15.2119 37.7645 15.2114 39.187 15.2114 40.6094C15.2115 41.4081 15.2112 42.2069 15.2103 43.0056C15.2096 43.6856 15.2094 44.3656 15.21 45.0456C15.2102 45.3926 15.2103 45.7395 15.2095 46.0865C15.2089 46.4041 15.209 46.7218 15.2097 47.0395C15.2099 47.1543 15.2097 47.2692 15.2092 47.3841C15.1703 48.3805 15.1703 48.3805 15.6241 49.2234C16.0505 49.5527 16.533 49.5038 17.0497 49.4965C17.1601 49.4967 17.2706 49.4972 17.381 49.4978C17.6838 49.4989 17.9864 49.4969 18.2891 49.4945C18.6158 49.4923 18.9425 49.4931 19.2692 49.4934C19.835 49.4937 20.4008 49.4921 20.9665 49.4894C21.7846 49.4854 22.6026 49.4841 23.4206 49.4835C24.7478 49.4824 26.075 49.4791 27.4022 49.4745C28.6914 49.4699 29.9806 49.4665 31.2697 49.4644C31.389 49.4642 31.389 49.4642 31.5106 49.464C31.9093 49.4633 32.3081 49.4627 32.7068 49.4621C36.0141 49.457 39.3214 49.4483 42.6286 49.4373C42.6388 49.3806 42.6489 49.3239 42.6593 49.2655C42.6732 49.1913 42.6871 49.1171 42.7014 49.0406C42.7149 48.967 42.7284 48.8934 42.7423 48.8175C42.7927 48.617 42.7927 48.617 42.9414 48.4017C43.0553 48.1739 43.0452 48.1094 42.9824 47.8685C42.8859 47.6424 42.8306 47.5678 42.6043 47.4654C42.4594 47.4264 42.3138 47.3901 42.1675 47.3564C41.9125 47.2886 41.7957 47.1909 41.6443 46.9764C41.5901 46.841 41.536 46.7057 41.4802 46.5662C37.6633 46.5662 33.8464 46.5662 29.9138 46.5662C29.7784 46.8099 29.6431 47.0535 29.5036 47.3045C29.0167 47.8201 28.5166 47.9999 27.8169 48.0736C27.2296 48.0095 26.6408 47.821 26.2224 47.3866C26.2 47.3206 26.1776 47.2547 26.1546 47.1868C26.0537 46.9 25.9655 46.7626 25.7302 46.5662C25.1279 46.3991 24.4609 46.4637 23.8425 46.474C23.6544 46.4741 23.4662 46.4738 23.2781 46.4731C22.7833 46.4724 22.2887 46.4763 21.794 46.4815C21.0959 46.4878 20.3978 46.4876 19.6997 46.4883C19.3279 46.4886 18.9562 46.4907 18.5845 46.4943C18.4152 46.4953 18.246 46.4963 18.0767 46.4973C17.9994 46.4985 17.922 46.4996 17.8423 46.5007C17.7716 46.501 17.7009 46.5013 17.628 46.5015C17.5359 46.5025 17.5359 46.5025 17.4418 46.5034C17.281 46.4842 17.281 46.4842 17.0349 46.3201C16.9529 46.0484 16.9529 46.0484 16.9529 45.7459C17.1166 45.511 17.2483 45.361 17.5358 45.2978C17.7532 45.2819 17.9672 45.2797 18.1852 45.2817C18.2677 45.2808 18.3501 45.28 18.4351 45.2791C18.7072 45.2767 18.9792 45.2772 19.2513 45.2778C19.4402 45.2767 19.629 45.2754 19.8179 45.274C20.3146 45.2707 20.8112 45.2699 21.3079 45.2696C21.8149 45.2688 22.3219 45.2658 22.8288 45.2629C23.8233 45.2576 24.8178 45.2549 25.8122 45.2537C25.8343 45.2083 25.8564 45.1628 25.8792 45.1159C25.9084 45.0565 25.9376 44.997 25.9677 44.9358C25.9966 44.8768 26.0254 44.8178 26.0552 44.757C26.2671 44.3603 26.6964 44.0547 27.1132 43.898C27.7391 43.7598 28.3704 43.7908 28.941 44.0896C29.218 44.2672 29.4421 44.4521 29.5727 44.7605C29.6652 44.9655 29.7493 45.0991 29.9138 45.2537C30.279 45.3525 30.6384 45.3366 31.0146 45.3282C31.1278 45.3281 31.241 45.3282 31.3542 45.3285C31.661 45.3287 31.9676 45.3249 32.2744 45.3203C32.5952 45.3162 32.916 45.3158 33.2367 45.315C33.844 45.313 34.4511 45.3076 35.0583 45.301C35.7496 45.2937 36.441 45.2901 37.1324 45.2868C38.5543 45.2799 39.9762 45.2684 41.3982 45.2537C41.4062 45.1756 41.4142 45.0975 41.4225 45.0169C41.4348 44.9141 41.4471 44.8112 41.4597 44.7052C41.4711 44.6033 41.4825 44.5015 41.4943 44.3966C41.5789 44.0337 41.7255 43.8032 42.039 43.5977C42.2185 43.5311 42.2185 43.5311 42.5107 43.4798C42.808 43.3609 42.8484 43.3374 42.9773 43.0645C43.0588 42.9038 43.0588 42.9038 43.0388 42.7108C42.9366 42.4837 42.8125 42.3049 42.6286 42.1366C42.3784 42.0541 42.1398 42.0615 41.8781 42.0677C41.8033 42.0673 41.7284 42.0668 41.6513 42.0663C41.4042 42.0653 41.1575 42.0683 40.9105 42.0712C40.7388 42.071 40.5671 42.0706 40.3954 42.0699C39.9436 42.0686 39.492 42.0706 39.0403 42.0734C38.3168 42.0776 37.5932 42.0775 36.8696 42.0762C36.6166 42.0763 36.3637 42.0781 36.1107 42.0802C35.9561 42.0805 35.8016 42.0807 35.647 42.0809C35.5411 42.0824 35.5411 42.0824 35.4331 42.084C34.9544 42.0825 34.9544 42.0825 34.7769 41.9473C34.5999 41.7139 34.6371 41.5155 34.6716 41.2342C34.7902 41.0535 34.7902 41.0535 34.9997 40.9061C35.2547 40.8622 35.5051 40.8725 35.7629 40.8808C35.8402 40.882 35.9175 40.8831 35.9971 40.8843C36.165 40.8868 36.3329 40.89 36.5008 40.8938C36.7676 40.8994 37.0342 40.9022 37.301 40.9041C38.0595 40.9095 38.8179 40.9167 39.5763 40.9339C40.0406 40.9442 40.5045 40.9484 40.9689 40.9487C41.1449 40.95 41.3209 40.9535 41.4968 40.9593C42.5679 41.0089 42.5679 41.0089 43.4968 40.5473C43.766 40.2897 43.9989 40.0089 44.2336 39.7203C44.4703 39.4655 44.7096 39.4342 45.0434 39.4039C45.3625 39.4319 45.5516 39.5187 45.8279 39.6756C46.1071 39.7687 46.2475 39.7418 46.5142 39.6224C46.7445 39.4318 46.7669 39.1681 46.8334 38.8867C46.9189 38.612 47.0592 38.5041 47.3044 38.3631C47.8258 38.1893 48.3964 38.2313 48.945 38.1991C48.945 32.6496 48.945 27.1002 48.945 21.3826C44.3397 21.3654 44.3397 21.3654 39.7344 21.3508C38.8451 21.3467 38.8451 21.3467 38.4292 21.3445C38.1378 21.343 37.8464 21.3422 37.555 21.3419C37.1837 21.3414 36.8124 21.3397 36.4411 21.3372C36.3046 21.3365 36.1681 21.3362 36.0316 21.3363C35.8476 21.3364 35.6638 21.3351 35.4798 21.3333C35.325 21.3328 35.325 21.3328 35.1671 21.3322C34.9177 21.3006 34.9177 21.3006 34.7618 21.1932C34.6067 20.9547 34.6379 20.7549 34.6716 20.4803C34.8004 20.3006 34.8004 20.3006 34.9997 20.1522C35.2117 20.1199 35.3889 20.1078 35.6007 20.1105C35.6613 20.11 35.722 20.1095 35.7845 20.109C35.988 20.1077 36.1913 20.1087 36.3947 20.1097C36.5405 20.1093 36.6863 20.1087 36.8321 20.108C37.2282 20.1065 37.6243 20.1071 38.0204 20.1081C38.4346 20.1089 38.8488 20.1082 39.2631 20.1076C39.9587 20.1071 40.6544 20.1078 41.3501 20.1094C42.1547 20.1112 42.9593 20.1106 43.764 20.1088C44.4544 20.1073 45.1449 20.1071 45.8354 20.108C46.2479 20.1085 46.6604 20.1085 47.073 20.1075C47.4608 20.1065 47.8486 20.1072 48.2365 20.1091C48.3789 20.1095 48.5214 20.1094 48.6638 20.1086C48.8581 20.1078 49.0522 20.1089 49.2465 20.1105C49.3314 20.1094 49.3314 20.1094 49.418 20.1083C49.6698 20.1124 49.8306 20.1419 50.0465 20.2742C50.2333 20.5727 50.2199 20.8542 50.2153 21.1954C50.2157 21.2683 50.216 21.3413 50.2163 21.4164C50.217 21.6614 50.2154 21.9063 50.2138 22.1513C50.2138 22.3268 50.214 22.5022 50.2144 22.6776C50.2148 23.0557 50.2142 23.4337 50.2129 23.8118C50.2108 24.4095 50.2113 25.0071 50.2122 25.6048C50.2141 27.0894 50.2126 28.574 50.2105 30.0587C50.2088 31.2121 50.2081 32.3656 50.2102 33.5191C50.2112 34.1133 50.2102 34.7075 50.2078 35.3018C50.2067 35.6714 50.2074 36.041 50.2084 36.4107C50.2086 36.5822 50.208 36.7537 50.2067 36.9252C50.205 37.1592 50.2059 37.3932 50.2073 37.6272C50.2062 37.6952 50.2051 37.7631 50.204 37.8331C50.2109 38.3157 50.3331 38.5101 50.6677 38.8553C50.7177 39.0383 50.7177 39.0383 50.7292 39.1988C50.7549 39.3664 50.7549 39.3664 50.8318 39.5116C51.0665 39.6637 51.2919 39.7333 51.57 39.7576C51.7688 39.6668 51.7688 39.6668 51.8982 39.5116C51.9794 39.4845 52.0606 39.4574 52.1443 39.4295C52.1518 36.8894 52.1576 34.3493 52.161 31.8092C52.1614 31.5093 52.1619 31.2094 52.1623 30.9095C52.1624 30.8498 52.1625 30.7901 52.1625 30.7285C52.164 29.7619 52.1666 28.7953 52.1696 27.8286C52.1726 26.8367 52.1745 25.8447 52.1751 24.8528C52.1756 24.2408 52.177 23.6287 52.1797 23.0167C52.1816 22.5473 52.1818 22.0779 52.1814 21.6085C52.1815 21.416 52.1821 21.2236 52.1834 21.0311C52.185 20.7683 52.1846 20.5056 52.1837 20.2428C52.1847 20.1666 52.1856 20.0904 52.1866 20.0119C52.1821 19.5247 52.1 19.239 51.8161 18.8397C51.3817 18.5055 50.9391 18.5013 50.4063 18.501C50.3476 18.5009 50.2888 18.5007 50.2283 18.5006C50.0309 18.5002 49.8335 18.5004 49.6362 18.5006C49.4934 18.5004 49.3507 18.5002 49.208 18.5C48.8153 18.4995 48.4227 18.4995 48.03 18.4996C47.6067 18.4996 47.1834 18.4992 46.7601 18.4988C45.9306 18.4981 45.1011 18.4979 44.2717 18.4979C43.5976 18.4978 42.9235 18.4976 42.2494 18.4974C40.3391 18.4967 38.4288 18.4963 36.5185 18.4963C36.364 18.4963 36.364 18.4963 36.2064 18.4964C36.1032 18.4964 36.0001 18.4964 35.8938 18.4964C34.2217 18.4964 32.5496 18.4956 30.8775 18.4945C29.1614 18.4933 27.4453 18.4927 25.7291 18.4928C24.7654 18.4928 23.8016 18.4926 22.8378 18.4917C22.0173 18.491 21.1968 18.4908 20.3763 18.4913C19.9576 18.4916 19.5388 18.4916 19.1201 18.4909C18.7368 18.4903 18.3536 18.4904 17.9704 18.4911C17.8316 18.4912 17.6929 18.4911 17.5542 18.4906C17.3657 18.49 17.1773 18.4905 16.9888 18.4911C16.8317 18.4911 16.8317 18.4911 16.6715 18.4911C16.2978 18.5172 15.9428 18.5662 15.6436 18.8028ZM47.9607 39.5116C47.9336 39.7552 47.9065 39.9988 47.8786 40.2498C47.6704 40.5434 47.4466 40.6381 47.1096 40.7472C46.8496 40.8343 46.628 40.9172 46.3867 41.0496C46.0906 41.1812 45.8162 41.2406 45.4997 41.1522C45.3373 41.0168 45.1749 40.8815 45.0075 40.742C44.6827 41.0669 44.3579 41.3917 44.0232 41.7264C44.1607 42.0401 44.1607 42.0401 44.3257 42.2032C44.4525 42.4145 44.4508 42.544 44.4042 42.7835C44.314 43.079 44.1835 43.3531 44.0478 43.6301C43.9379 43.8533 43.9379 43.8533 43.8729 44.0755C43.8053 44.2822 43.7518 44.4294 43.613 44.5975C43.3035 44.7123 43.0445 44.7337 42.7107 44.7616C42.7107 45.2488 42.7107 45.7361 42.7107 46.2381C42.8409 46.2466 42.9712 46.255 43.1054 46.2638C43.4849 46.2884 43.4849 46.2884 43.6678 46.4144C43.8189 46.6243 43.8947 46.841 43.9822 47.0841C44.0838 47.3645 44.1864 47.631 44.3205 47.8976C44.4559 48.1704 44.4834 48.3164 44.4333 48.617C44.3112 48.8027 44.1776 48.947 44.0232 49.1092C44.1492 49.4111 44.3334 49.6004 44.5666 49.827C44.6337 49.8925 44.7007 49.9581 44.7698 50.0257C44.8212 50.0751 44.8726 50.1246 44.9255 50.1756C45.1131 50.0852 45.2743 49.9965 45.4433 49.8731C45.7364 49.73 45.9367 49.7536 46.238 49.8475C46.4677 49.9429 46.692 50.0461 46.9164 50.1535C47.1154 50.2461 47.3128 50.3236 47.5198 50.3961C47.7966 50.5037 47.7966 50.5037 47.8786 50.6678C47.9149 50.9406 47.9361 51.214 47.9607 51.4881C48.475 51.4881 48.9893 51.4881 49.5193 51.4881C49.5277 51.3578 49.5362 51.2276 49.5449 51.0933C49.5695 50.7139 49.5695 50.7139 49.6955 50.531C49.9055 50.3799 50.1221 50.3041 50.3652 50.2166C50.6461 50.1148 50.9105 50.0132 51.1759 49.8754C51.484 49.7282 51.654 49.7585 51.9802 49.8475C52.2212 50.0167 52.2212 50.0167 52.3904 50.1756C52.6923 50.0496 52.8815 49.8654 53.1081 49.6322C53.1737 49.5651 53.2393 49.4981 53.3068 49.429C53.3563 49.3776 53.4058 49.3262 53.4568 49.2733C53.3694 49.0903 53.293 48.9455 53.1594 48.7913C53.0047 48.5523 53.024 48.4074 53.0466 48.1248C53.1456 47.8637 53.1456 47.8637 53.2773 47.5968C53.3223 47.5041 53.3672 47.4115 53.4135 47.3161C53.4549 47.231 53.4962 47.146 53.5388 47.0584C53.5876 46.9443 53.6357 46.8299 53.6824 46.7149C53.7849 46.4842 53.7849 46.4842 53.949 46.3201C54.2215 46.2728 54.4931 46.2594 54.7693 46.2381C54.7693 45.7509 54.7693 45.2636 54.7693 44.7616C54.6255 44.7429 54.4816 44.7243 54.3335 44.7052C53.908 44.6501 53.908 44.6501 53.7279 44.4193C53.6108 44.1657 53.5075 43.9111 53.4106 43.649C53.2788 43.2884 53.2788 43.2884 53.1155 42.9418C52.9975 42.6865 53.0624 42.4836 53.1286 42.2186C53.2978 42.0186 53.2978 42.0186 53.4568 41.8905C53.3266 41.5703 53.1177 41.3708 52.8723 41.1317C52.7976 41.0585 52.723 40.9853 52.6461 40.9099C52.5888 40.8545 52.5314 40.7991 52.4724 40.742C52.3895 40.8097 52.3066 40.8774 52.2212 40.9471C51.9282 41.1862 51.6958 41.1859 51.324 41.1522C51.0548 41.0532 51.0548 41.0532 50.7907 40.9215C50.699 40.8766 50.6072 40.8318 50.5126 40.7856C50.4284 40.7442 50.3443 40.7027 50.2575 40.66C50.1418 40.6094 50.0257 40.5596 49.9089 40.5113C49.6833 40.4139 49.6833 40.4139 49.6013 40.3319C49.5636 40.0593 49.5436 39.7858 49.5193 39.5116C49.0049 39.5116 48.4906 39.5116 47.9607 39.5116ZM27.1247 45.4178C26.9577 45.638 26.9607 45.7462 26.9658 46.0279C27.0592 46.3828 27.1588 46.513 27.4529 46.7303C27.7322 46.8327 27.7322 46.8327 28.0271 46.8123C28.3344 46.65 28.4903 46.5277 28.6833 46.2381C28.721 45.8308 28.6957 45.5768 28.4372 45.2537C27.9881 44.9169 27.4931 45.039 27.1247 45.4178Z" fill="#ED640F"/>
<path d="M18.206 20.058C18.2672 20.0577 18.3285 20.0574 18.3915 20.0571C18.5973 20.0562 18.803 20.0559 19.0087 20.0556C19.156 20.055 19.3033 20.0545 19.4505 20.0539C19.851 20.0525 20.2515 20.0516 20.652 20.051C20.9021 20.0505 21.1522 20.05 21.4023 20.0495C22.1846 20.048 22.9668 20.0468 23.749 20.0461C24.6525 20.0453 25.5561 20.0431 26.4596 20.0398C27.1577 20.0374 27.8557 20.0361 28.5538 20.0359C28.9709 20.0357 29.3879 20.0349 29.805 20.0329C30.1973 20.031 30.5896 20.0306 30.9818 20.0315C31.1258 20.0315 31.2699 20.031 31.4139 20.0299C31.6104 20.0284 31.8069 20.029 32.0034 20.0301C32.0605 20.0292 32.1175 20.0283 32.1763 20.0273C32.5631 20.0325 32.7602 20.1239 33.0311 20.3982C33.0827 20.5623 33.0827 20.5623 33.0773 20.7263C33.0774 20.7805 33.0775 20.8346 33.0776 20.8904C33.0089 21.1329 32.9001 21.2266 32.703 21.3826C32.4397 21.423 32.4397 21.423 32.1217 21.422C32.0633 21.4223 32.0048 21.4226 31.9446 21.4229C31.7482 21.4234 31.5519 21.4216 31.3555 21.4198C31.2126 21.4197 31.0696 21.4198 30.9267 21.42C30.5436 21.42 30.1605 21.4181 29.7775 21.4158C29.4181 21.4139 29.0588 21.4139 28.6994 21.4136C27.6482 21.4119 26.597 21.4073 25.5458 21.4031C23.1974 21.3963 20.8491 21.3896 18.4296 21.3826C18.4296 27.7982 18.4296 34.2139 18.4296 40.824C23.0815 40.811 23.0815 40.811 27.7335 40.7944C28.6324 40.7929 28.6324 40.7929 29.0531 40.7927C29.3473 40.7924 29.6416 40.7911 29.9359 40.7893C30.3111 40.7871 30.6863 40.7864 31.0615 40.7869C31.1993 40.7868 31.3371 40.7861 31.4749 40.7849C31.6609 40.7832 31.8469 40.7836 32.0329 40.7845C32.1372 40.7842 32.2415 40.7839 32.3489 40.7836C32.6688 40.8311 32.8048 40.9254 33.0311 41.1521C33.0827 41.3162 33.0827 41.3162 33.0773 41.4802C33.0774 41.5614 33.0774 41.5614 33.0776 41.6443C33.0086 41.888 32.902 41.9804 32.703 42.1365C32.4873 42.1689 32.3058 42.1812 32.0902 42.1787C32.0282 42.1793 31.9663 42.1798 31.9024 42.1804C31.6947 42.1819 31.487 42.1811 31.2792 42.1802C31.1303 42.1808 30.9814 42.1815 30.8325 42.1824C30.4279 42.1842 30.0234 42.184 29.6188 42.1833C29.2812 42.1828 28.9436 42.1834 28.606 42.184C27.8097 42.1854 27.0134 42.1851 26.217 42.1838C25.3951 42.1824 24.5733 42.1837 23.7514 42.1863C23.046 42.1885 22.3407 42.1891 21.6353 42.1884C21.2139 42.188 20.7925 42.1882 20.3711 42.1899C19.9748 42.1914 19.5786 42.1909 19.1824 42.1889C19.0369 42.1885 18.8914 42.1888 18.746 42.1898C18.5474 42.1911 18.349 42.1899 18.1505 42.188C18.0929 42.189 18.0352 42.19 17.9759 42.191C17.6888 42.1855 17.5288 42.1375 17.2864 41.9813C17.0423 41.6138 17.0606 41.3088 17.0661 40.8763C17.0656 40.7898 17.0651 40.7033 17.0645 40.6142C17.0633 40.3239 17.0649 40.0338 17.0666 39.7435C17.0663 39.5356 17.0659 39.3277 17.0652 39.1198C17.0642 38.6134 17.0651 38.1071 17.0668 37.6007C17.0688 37.0111 17.0686 36.4215 17.0684 35.8318C17.0681 34.7798 17.0698 33.7277 17.0726 32.6757C17.0753 31.6547 17.0765 30.6339 17.076 29.6129C17.0754 28.5013 17.0756 27.3897 17.0773 26.278C17.0774 26.1898 17.0774 26.1898 17.0775 26.0999C17.0777 25.9818 17.0779 25.8637 17.078 25.7457C17.0786 25.3347 17.0786 24.9236 17.0785 24.5126C17.0784 23.9594 17.0796 23.4062 17.0817 22.853C17.0823 22.6498 17.0825 22.4465 17.0822 22.2432C17.0819 21.9662 17.0831 21.6893 17.0847 21.4123C17.0843 21.3314 17.0839 21.2506 17.0834 21.1672C17.0904 20.4662 17.0904 20.4662 17.3632 20.1521C17.65 20.0565 17.9076 20.0579 18.206 20.058Z" fill="#ED640F"/>
<path d="M36.8868 26.3047C37.1091 26.5365 37.1637 26.6983 37.1641 27.0158C37.1648 27.0924 37.1655 27.169 37.1662 27.2479C37.1657 27.3313 37.1652 27.4148 37.1647 27.5007C37.1651 27.5891 37.1656 27.6774 37.166 27.7684C37.1671 28.0607 37.1664 28.3529 37.1655 28.6452C37.1657 28.8481 37.1659 29.051 37.1662 29.2538C37.1666 29.6792 37.1661 30.1045 37.1649 30.5299C37.1635 31.0755 37.1643 31.6211 37.1658 32.1667C37.1667 32.5857 37.1664 33.0047 37.1658 33.4237C37.1656 33.6249 37.1658 33.8261 37.1664 34.0274C37.167 34.3084 37.1661 34.5894 37.1647 34.8704C37.1652 34.9539 37.1657 35.0373 37.1662 35.1233C37.1655 35.1999 37.1648 35.2765 37.1641 35.3554C37.164 35.4218 37.1639 35.4882 37.1638 35.5567C37.1248 35.7857 37.0446 35.898 36.8868 36.0664C36.5987 36.1604 36.4551 36.1738 36.1741 36.0562C35.966 35.8875 35.8697 35.7232 35.7383 35.4922C35.6825 35.5258 35.6267 35.5595 35.5691 35.5941C34.7133 36.0699 33.7407 36.2918 32.7679 36.0626C31.7284 35.7074 30.9763 35.2023 30.43 34.2339C29.9634 33.2709 29.9464 32.2438 30.2925 31.2381C30.7124 30.2872 31.4218 29.6333 32.3715 29.2354C33.1934 28.9431 34.2445 28.9837 35.0446 29.3181C35.3081 29.4538 35.5632 29.6024 35.8203 29.75C35.8195 29.6598 35.8186 29.5696 35.8177 29.4766C35.8148 29.1415 35.8129 28.8064 35.8113 28.4713C35.8105 28.3263 35.8094 28.1814 35.808 28.0364C35.806 27.8279 35.8051 27.6194 35.8043 27.4109C35.8035 27.3462 35.8026 27.2815 35.8018 27.2148C35.8016 26.6462 35.8016 26.6462 35.9844 26.3868C36.2764 26.1596 36.5427 26.2171 36.8868 26.3047ZM31.8828 31.1446C31.4964 31.7289 31.3127 32.2464 31.3907 32.9493C31.5585 33.5786 31.8481 34.1058 32.3991 34.4672C33.0042 34.7965 33.5239 34.9201 34.1951 34.7386C34.906 34.4935 35.3525 34.0645 35.7281 33.4261C35.9003 32.8422 35.9174 32.1906 35.664 31.6262C35.3143 31.028 34.8493 30.6084 34.1797 30.4063C33.2749 30.282 32.5276 30.4852 31.8828 31.1446Z" fill="#ED640F"/>
<path d="M25.0278 26.2327C25.1215 26.2381 25.1215 26.2381 25.2172 26.2436C25.4874 26.3326 25.5677 26.4825 25.7302 26.7146C25.8258 26.9281 25.9113 27.1365 25.9916 27.3555C26.0159 27.4196 26.0401 27.4837 26.0651 27.5498C26.1455 27.7633 26.225 27.9773 26.3044 28.1912C26.3611 28.3421 26.4178 28.4931 26.4746 28.644C26.5977 28.9713 26.7204 29.2988 26.8429 29.6265C27.0546 30.1926 27.2684 30.7581 27.4823 31.3234C27.768 32.0787 28.0536 32.834 28.3385 33.5896C28.3835 33.7088 28.3835 33.7088 28.4295 33.8305C28.4863 33.9813 28.5429 34.1322 28.5993 34.2831C28.6581 34.4402 28.7176 34.597 28.7776 34.7537C28.8077 34.8335 28.8379 34.9134 28.8689 34.9956C28.8962 35.0673 28.9236 35.139 28.9518 35.2128C29.0382 35.4984 29.0232 35.7028 28.9294 35.9842C28.7463 36.1944 28.6357 36.2251 28.3603 36.2661C28.0335 36.2195 27.932 36.1374 27.6989 35.9021C27.5692 35.6491 27.4776 35.3866 27.3862 35.1177C27.3606 35.0469 27.3351 34.9761 27.3088 34.9032C27.1247 34.3825 27.1247 34.3825 27.1247 34.0974C25.6629 34.0974 24.2011 34.0974 22.695 34.0974C22.6679 34.2328 22.6409 34.3681 22.613 34.5076C22.5322 34.7608 22.4363 35.0079 22.3413 35.2561C22.317 35.3226 22.2927 35.3892 22.2677 35.4577C22.0339 36.0686 22.0339 36.0686 21.7106 36.2303C21.3818 36.2862 21.2577 36.2562 20.9775 36.0713C20.7803 35.7785 20.798 35.6353 20.8457 35.2942C20.9285 34.8999 21.0758 34.5324 21.2233 34.1583C21.2745 34.0252 21.2745 34.0252 21.3267 33.8894C21.4385 33.5995 21.5515 33.3102 21.6645 33.0208C21.7423 32.8199 21.8201 32.6189 21.8977 32.4179C22.017 32.1093 22.1364 31.8007 22.2562 31.4923C22.5227 30.806 22.7848 30.1183 23.0443 29.4293C23.1439 29.1656 23.2436 28.9019 23.3433 28.6382C23.4064 28.4709 23.4693 28.3034 23.532 28.1359C23.619 27.9035 23.7069 27.6714 23.7951 27.4394C23.8202 27.3716 23.8453 27.3037 23.8712 27.2337C24.0084 26.8757 24.145 26.5836 24.4177 26.3045C24.6568 26.2248 24.782 26.2136 25.0278 26.2327ZM24.8278 28.5193C24.6055 29.1003 24.3835 29.6814 24.1619 30.2627C24.0864 30.4605 24.0108 30.6583 23.9351 30.8561C23.8266 31.1399 23.7183 31.4237 23.6102 31.7076C23.5761 31.7965 23.542 31.8854 23.5069 31.9769C23.4757 32.059 23.4445 32.1411 23.4123 32.2257C23.3708 32.3345 23.3708 32.3345 23.3284 32.4454C23.2605 32.6159 23.2605 32.6159 23.2692 32.7849C24.352 32.7849 25.4349 32.7849 26.5505 32.7849C26.3679 32.1626 26.3679 32.1626 26.156 31.5552C26.1297 31.4863 26.1034 31.4174 26.0764 31.3464C26.049 31.2753 26.0215 31.2041 25.9932 31.1309C25.9645 31.0555 25.9357 30.9802 25.906 30.9026C25.8152 30.6652 25.724 30.428 25.6328 30.1907C25.5706 30.0285 25.5085 29.8662 25.4464 29.704C25.2952 29.309 25.1437 28.9141 24.9919 28.5193C24.9377 28.5193 24.8836 28.5193 24.8278 28.5193Z" fill="#ED640F"/>
<path d="M51.2814 42.5503C52.096 43.3213 52.5403 44.2001 52.5878 45.3252C52.6059 46.3927 52.2734 47.3577 51.558 48.1588C50.6978 48.9939 49.7485 49.2947 48.5779 49.294C47.5292 49.2784 46.6787 48.8542 45.9161 48.1435C45.1983 47.3729 44.8733 46.3778 44.8871 45.3369C44.9253 44.4694 45.1986 43.711 45.7462 43.0393C45.7915 42.9829 45.8367 42.9265 45.8834 42.8685C47.2721 41.3166 49.7076 41.2545 51.2814 42.5503ZM46.8126 43.8596C46.75 43.9239 46.6874 43.9882 46.6229 44.0544C46.2378 44.6535 46.1577 45.2909 46.2384 45.9924C46.4002 46.6597 46.7601 47.2104 47.3305 47.5978C48.014 47.9913 48.7268 48.0933 49.5056 47.9051C50.3462 47.5943 50.8077 47.0516 51.1859 46.259C51.3415 45.5237 51.2899 44.8449 50.9142 44.1877C50.4684 43.5455 49.8846 43.1068 49.1095 42.9572C48.1928 42.8437 47.4388 43.2082 46.8126 43.8596Z" fill="#ED640F"/>
<path d="M44.1051 29.3397C44.3411 29.5143 44.4843 29.6207 44.5537 29.91C44.5763 30.2158 44.5379 30.3779 44.3461 30.6163C44.0195 30.7761 43.8815 30.7499 43.5309 30.6522C43.3141 30.5542 43.1037 30.4489 42.8938 30.3368C42.5139 30.1403 42.1446 30.0825 41.7281 30.2093C41.4248 30.3237 41.4248 30.3237 41.234 30.5701C41.2307 30.7342 41.2304 30.8983 41.234 31.0623C41.866 31.3942 42.4988 31.6735 43.1662 31.9243C43.8203 32.2076 44.4021 32.6714 44.6947 33.3336C44.8585 34.0015 44.7709 34.5621 44.4332 35.1639C44.0469 35.6763 43.5087 36.0294 42.8746 36.1482C41.6815 36.2302 40.6922 36.0548 39.7574 35.2459C39.5594 35.0241 39.4771 34.8832 39.4806 34.5845C39.5113 34.2615 39.5113 34.2615 39.6036 34.1026C39.8252 33.977 39.9949 33.9436 40.2496 33.9334C40.4538 34.0276 40.6166 34.147 40.7956 34.2817C41.4026 34.7302 41.956 34.8385 42.7106 34.7537C42.9825 34.6527 43.147 34.5007 43.3207 34.2667C43.385 34.0308 43.3743 33.9168 43.2848 33.6873C42.7777 33.1562 42.0668 32.9776 41.3915 32.7332C40.6839 32.462 40.2475 32.1762 39.8878 31.5016C39.7271 30.8598 39.7891 30.2574 40.1179 29.6835C41.0703 28.3835 42.8779 28.6042 44.1051 29.3397Z" fill="#ED640F"/>
</g>
<defs>
<clipPath id="clip0_2048_506">
<rect width="42" height="42" fill="white" transform="translate(14 14)"/>
</clipPath>
</defs>
</svg>
