<svg width="70" height="70" viewBox="0 0 70 70" fill="none" xmlns="http://www.w3.org/2000/svg">
<rect width="70" height="70" rx="10" fill="#FDF0E6"/>
<g clip-path="url(#clip0_2055_518)">
<path d="M36.7973 19.2266C36.8534 19.2266 36.9094 19.2267 36.9672 19.2267C40.6432 19.2369 43.963 20.699 46.5825 23.2539C46.8898 23.5689 47.1661 23.9044 47.4379 24.25C47.4874 24.3109 47.5369 24.3719 47.5878 24.4346C48.2607 25.2794 48.7953 26.2098 49.2504 27.1875C49.2837 27.2585 49.317 27.3295 49.3512 27.4026C50.7227 30.4608 50.8323 34.1628 49.6879 37.3125C49.5824 37.5788 49.4712 37.8426 49.3553 38.1045C49.3346 38.1516 49.3138 38.1986 49.2924 38.2471C49.2645 38.3091 49.2645 38.3091 49.236 38.3724C49.1182 38.6852 49.1256 38.8745 49.2366 39.1914C49.2625 39.2666 49.2885 39.3418 49.3152 39.4193C49.3443 39.5013 49.3734 39.5833 49.4025 39.6653C49.4323 39.7509 49.462 39.8366 49.4917 39.9222C49.5702 40.1487 49.6497 40.3748 49.7294 40.6008C49.8083 40.8251 49.8865 41.0496 49.9647 41.2741C49.9954 41.3624 50.0262 41.4508 50.057 41.5391C50.0797 41.6043 50.0797 41.6043 50.1029 41.6708C50.1334 41.7583 50.1639 41.8458 50.1943 41.9333C50.2826 42.1866 50.3708 42.44 50.4589 42.6934C50.4992 42.8091 50.5397 42.9249 50.5801 43.0406C50.6516 43.246 50.7223 43.4517 50.7927 43.6575C50.8133 43.7164 50.834 43.7753 50.8553 43.836C51.0755 44.4866 51.1393 45.1624 50.8332 45.8016C50.5357 46.2903 50.156 46.5975 49.6371 46.8282C48.7134 47.0455 47.9521 46.7439 47.0781 46.4441C46.9908 46.4144 46.9034 46.3848 46.8161 46.3551C46.5877 46.2776 46.3595 46.1996 46.1313 46.1216C45.9477 46.0589 45.764 45.9964 45.5804 45.9339C45.49 45.9032 45.3995 45.8724 45.3091 45.8416C45.0891 45.7666 44.8689 45.6919 44.6486 45.6179C44.2917 45.4977 43.9362 45.3768 43.5859 45.2384C43.0115 45.0124 43.0115 45.0124 42.4074 45.087C42.2845 45.1432 42.1631 45.2029 42.0434 45.2657C41.9092 45.3272 41.7747 45.3882 41.6401 45.4488C41.5416 45.4944 41.5416 45.4944 41.4412 45.541C40.431 45.986 39.2033 46.2307 38.1032 46.2644C37.5334 46.2683 37.5334 46.2683 37.0529 46.5347C36.9022 46.7038 36.7745 46.8877 36.6462 47.0741C36.5035 47.2685 36.3357 47.4363 36.1645 47.6055C36.1304 47.6393 36.0962 47.673 36.0611 47.7078C34.2539 49.4615 31.7372 50.3704 29.2409 50.378C27.9182 50.3558 26.5343 50.1222 25.3383 49.5376C24.8714 49.4209 24.3704 49.6584 23.9369 49.8125C23.8307 49.8496 23.8307 49.8496 23.7223 49.8875C23.4971 49.9662 23.2722 50.0456 23.0473 50.125C22.8214 50.2043 22.5956 50.2835 22.3696 50.3626C22.2293 50.4117 22.0891 50.4611 21.9489 50.5105C21.8855 50.5329 21.8221 50.5552 21.7567 50.5782C21.701 50.5978 21.6454 50.6175 21.588 50.6377C21.0885 50.8035 20.4987 50.8539 20.0043 50.6485C19.5464 50.4059 19.1848 50.0813 19.0276 49.5734C18.8381 48.6258 19.2042 47.79 19.52 46.9102C19.5697 46.7682 19.6193 46.6261 19.6688 46.484C20.0047 45.5227 20.0047 45.5227 20.1723 45.096C20.3404 44.6205 20.1487 44.266 19.9587 43.8284C19.0479 41.6036 19.2049 38.8975 20.112 36.703C20.6219 35.5159 21.2907 34.4961 22.1879 33.5625C22.2662 33.4805 22.2662 33.4805 22.3461 33.3968C22.5745 33.1626 22.7943 32.9401 23.0668 32.7579C23.2541 32.6487 23.2541 32.6487 23.2917 32.5102C23.3143 32.3662 23.3271 32.2252 23.3354 32.0796C23.5674 28.5053 25.0397 25.1942 27.6879 22.75C27.912 22.5558 28.1423 22.3709 28.3754 22.1875C28.4363 22.1381 28.4972 22.0886 28.56 22.0376C30.9006 20.1734 33.8204 19.2198 36.7973 19.2266ZM33.2504 21.75C33.2065 21.7638 33.1625 21.7775 33.1172 21.7917C31.6319 22.2662 30.253 23.1185 29.1254 24.1875C29.0201 24.2801 28.9146 24.3725 28.809 24.4649C26.7487 26.3332 25.4491 29.2015 25.301 31.9728C25.2963 32.1969 25.2955 32.4204 25.2973 32.6446C25.2977 32.7238 25.2981 32.8031 25.2986 32.8848C25.3341 36.116 26.7238 38.9644 28.9838 41.2342C31.1142 43.2616 34.064 44.4032 37.0004 44.375C38.7511 44.3188 40.3805 43.9463 41.9593 43.1833C42.0316 43.1489 42.0316 43.1489 42.1054 43.1138C42.1471 43.0934 42.1888 43.0729 42.2318 43.0518C42.612 42.9147 42.9129 42.939 43.2897 43.0623C43.3581 43.0836 43.3581 43.0836 43.4279 43.1053C43.5775 43.1523 43.7265 43.2009 43.8754 43.25C43.9261 43.2667 43.9768 43.2833 44.029 43.3004C44.3567 43.4085 44.6834 43.5194 45.0098 43.6316C45.1881 43.6928 45.3665 43.7537 45.545 43.8146C46.1203 44.0113 46.6943 44.2109 47.266 44.4178C47.3154 44.4355 47.3648 44.4533 47.4157 44.4716C47.6465 44.5548 47.877 44.6386 48.107 44.7239C48.1885 44.7535 48.2701 44.783 48.3517 44.8125C48.4216 44.8383 48.4915 44.8641 48.5635 44.8907C48.7594 44.9398 48.8714 44.932 49.0629 44.875C48.9665 44.3791 48.8087 43.9117 48.6425 43.4353C48.613 43.3501 48.5836 43.2648 48.5542 43.1795C48.4767 42.9553 48.399 42.7312 48.3211 42.5071C48.2437 42.2844 48.1666 42.0616 48.0895 41.8388C48.0745 41.7952 48.0594 41.7517 48.0439 41.7068C47.9687 41.4896 47.8936 41.2723 47.8189 41.0548C47.7897 40.9699 47.7605 40.885 47.7313 40.8001C47.7171 40.7588 47.703 40.7175 47.6883 40.675C47.5956 40.4057 47.5007 40.1374 47.4048 39.8692C47.358 39.7358 47.3113 39.6024 47.2646 39.469C47.2321 39.3807 47.2321 39.3807 47.199 39.2905C47.0505 38.8609 47.0359 38.5226 47.1782 38.0893C47.2095 38.0259 47.2095 38.0259 47.2414 37.9612C47.2647 37.9125 47.2879 37.8637 47.3119 37.8135C47.3491 37.7376 47.3491 37.7376 47.3871 37.6602C48.1128 36.107 48.4519 34.4847 48.4575 32.7735C48.4576 32.7251 48.4578 32.6767 48.4579 32.6269C48.4582 31.7915 48.3803 31.0023 48.1879 30.1875C48.1697 30.1036 48.1515 30.0197 48.1332 29.9358C47.6039 27.7216 46.2541 25.5181 44.5004 24.0625C44.421 23.9926 44.421 23.9926 44.34 23.9212C41.3064 21.2921 37.0457 20.5359 33.2504 21.75ZM23.5004 35.0625C22.0452 36.532 21.3566 38.5514 21.3601 40.5917C21.3745 41.8399 21.6514 43.0454 22.2599 44.1451C22.426 44.67 22.266 45.1614 22.0871 45.6602C22.0524 45.7607 22.0524 45.7607 22.017 45.8632C21.9433 46.0758 21.8684 46.2879 21.7934 46.5C21.7193 46.7122 21.6455 46.9245 21.5718 47.1369C21.526 47.2684 21.48 47.3999 21.4337 47.5313C21.2992 47.9139 21.1756 48.298 21.0629 48.6875C21.5176 48.556 21.9642 48.4067 22.4106 48.2493C22.5481 48.2014 22.6856 48.1536 22.8232 48.1059C23.0373 48.0315 23.2513 47.9568 23.465 47.8812C23.6731 47.8077 23.8816 47.7354 24.0903 47.6634C24.1534 47.6407 24.2166 47.6181 24.2817 47.5947C24.9301 47.3732 25.4058 47.3807 26.0239 47.6719C26.1285 47.7182 26.2333 47.7644 26.3381 47.8103C26.3878 47.8325 26.4376 47.8546 26.4889 47.8775C28.2346 48.6459 30.3662 48.5524 32.1254 47.875C33.0714 47.4852 34.1368 46.9706 34.7504 46.125C34.6958 46.1133 34.6958 46.1133 34.6401 46.1013C33.8722 45.9349 33.119 45.7546 32.3754 45.5C32.2622 45.4632 32.2622 45.4632 32.1467 45.4256C30.9224 45.0015 29.7722 44.3558 28.7504 43.5625C28.6558 43.4894 28.6558 43.4894 28.5593 43.4148C28.1252 43.0682 27.717 42.6933 27.3129 42.3125C27.264 42.267 27.2151 42.2215 27.1647 42.1746C25.2466 40.3317 23.9942 37.6628 23.5629 35.0625C23.5423 35.0625 23.5217 35.0625 23.5004 35.0625Z" fill="#ED640F"/>
<path d="M31.3733 31.5935C31.4469 31.5929 31.4469 31.5929 31.5219 31.5923C31.6857 31.5913 31.8495 31.5921 32.0133 31.5929C32.131 31.5925 32.2487 31.5921 32.3663 31.5915C32.6855 31.5904 33.0047 31.5908 33.3239 31.5916C33.6581 31.5923 33.9922 31.5917 34.3264 31.5913C34.8875 31.5908 35.4486 31.5914 36.0098 31.5926C36.6584 31.594 37.307 31.5935 37.9557 31.5922C38.5127 31.591 39.0697 31.5909 39.6267 31.5915C39.9593 31.5919 40.292 31.592 40.6246 31.5911C40.9373 31.5904 41.25 31.5909 41.5628 31.5924C41.6775 31.5927 41.7922 31.5926 41.907 31.5921C42.0637 31.5914 42.2203 31.5922 42.377 31.5935C42.445 31.5926 42.445 31.5926 42.5144 31.5918C42.9046 31.5978 43.1222 31.7508 43.3947 32.0158C43.5561 32.2789 43.5946 32.5213 43.5372 32.82C43.4337 33.1466 43.2803 33.3076 43.0001 33.5002C42.7768 33.5747 42.5742 33.5718 42.3418 33.5715C42.2692 33.5718 42.2692 33.5718 42.1952 33.5721C42.0325 33.5726 41.8699 33.5727 41.7072 33.5728C41.5908 33.5731 41.4744 33.5734 41.358 33.5737C41.0413 33.5746 40.7247 33.575 40.4081 33.5752C40.2103 33.5754 40.0125 33.5757 39.8148 33.576C39.1962 33.5768 38.5776 33.5774 37.9591 33.5777C37.2447 33.5779 36.5303 33.579 35.816 33.5808C35.264 33.5822 34.712 33.5828 34.1601 33.5829C33.8303 33.583 33.5005 33.5833 33.1707 33.5845C32.8605 33.5855 32.5503 33.5856 32.2401 33.5851C32.1263 33.585 32.0125 33.5853 31.8986 33.5859C31.7432 33.5867 31.5877 33.5863 31.4323 33.5857C31.3873 33.5862 31.3423 33.5867 31.296 33.5872C31.0059 33.5844 30.8091 33.5275 30.5626 33.3752C30.2707 33.0518 30.2278 32.8505 30.2328 32.4228C30.2572 32.1793 30.3348 32.0536 30.5001 31.8752C30.7889 31.6433 31.0118 31.589 31.3733 31.5935Z" fill="#ED640F"/>
<path d="M31.4384 27.6562C31.5113 27.6557 31.5113 27.6557 31.5857 27.6552C31.7476 27.6543 31.9094 27.6553 32.0713 27.6562C32.1878 27.656 32.3042 27.6556 32.4207 27.6552C32.7362 27.6543 33.0518 27.655 33.3674 27.656C33.6979 27.6569 34.0284 27.6565 34.3588 27.6563C34.9137 27.6561 35.4686 27.657 36.0235 27.6584C36.6648 27.6601 37.3061 27.6602 37.9475 27.6594C38.5648 27.6588 39.182 27.6592 39.7993 27.66C40.0619 27.6604 40.3244 27.6604 40.587 27.6601C40.8962 27.6598 41.2054 27.6604 41.5146 27.6618C41.628 27.6621 41.7414 27.6622 41.8549 27.6618C42.0098 27.6615 42.1646 27.6623 42.3195 27.6633C42.3867 27.6628 42.3867 27.6628 42.4553 27.6622C42.8161 27.6667 43.0659 27.7602 43.3281 28.0079C43.5214 28.3253 43.5825 28.6168 43.5273 28.9844C43.4101 29.2494 43.2604 29.4099 43.0199 29.5701C42.8124 29.6488 42.6108 29.6427 42.3919 29.6418C42.3429 29.6421 42.294 29.6423 42.2436 29.6426C42.0794 29.6434 41.9152 29.6433 41.751 29.6432C41.6334 29.6436 41.5157 29.644 41.398 29.6445C41.0783 29.6456 40.7586 29.6459 40.4389 29.646C40.172 29.6461 39.9052 29.6465 39.6383 29.647C39.0088 29.648 38.3793 29.6483 37.7498 29.6482C37.1002 29.6481 36.4507 29.6495 35.8011 29.6514C35.2436 29.6531 34.6861 29.6537 34.1285 29.6537C33.7955 29.6536 33.4624 29.654 33.1294 29.6553C32.8161 29.6565 32.5029 29.6565 32.1897 29.6556C32.0747 29.6555 31.9598 29.6558 31.8448 29.6565C31.6879 29.6575 31.531 29.6569 31.374 29.656C31.3286 29.6566 31.2831 29.6573 31.2363 29.6579C30.9205 29.6536 30.7443 29.5714 30.5 29.3751C30.2857 29.1438 30.2313 28.9639 30.2188 28.6563C30.2317 28.3484 30.282 28.1667 30.5 27.9376C30.8178 27.7229 31.0524 27.651 31.4384 27.6562Z" fill="#ED640F"/>
<path d="M31.4319 35.4913C31.5221 35.4908 31.5221 35.4908 31.6142 35.4902C31.6795 35.4902 31.7448 35.4901 31.8121 35.49C31.8815 35.4897 31.9508 35.4894 32.0223 35.4891C32.2515 35.4882 32.4807 35.4877 32.71 35.4874C32.8695 35.487 33.029 35.4867 33.1885 35.4863C33.4802 35.4857 33.7719 35.4854 34.0636 35.4852C34.492 35.4849 34.9203 35.4838 35.3487 35.482C35.7206 35.4805 36.0925 35.48 36.4645 35.4799C36.6223 35.4797 36.7801 35.4792 36.9379 35.4784C37.1588 35.4773 37.3797 35.4774 37.6007 35.4778C37.6981 35.477 37.6981 35.477 37.7974 35.4761C38.238 35.4786 38.6338 35.5091 38.9607 35.836C39.1586 36.1557 39.2113 36.3646 39.1587 36.7367C39.0934 37.0029 38.9495 37.1824 38.7498 37.3634C38.5291 37.4944 38.3213 37.508 38.0681 37.5093C38.0064 37.5097 37.9448 37.5102 37.8812 37.5107C37.8139 37.5108 37.7467 37.511 37.6773 37.5112C37.6062 37.5116 37.535 37.512 37.4617 37.5124C37.226 37.5136 36.9903 37.5144 36.7547 37.515C36.6339 37.5154 36.6339 37.5154 36.5107 37.5158C36.1285 37.5169 35.7464 37.5178 35.3642 37.5184C34.9239 37.519 34.4837 37.5206 34.0434 37.5231C33.6614 37.5253 33.2794 37.526 32.8973 37.5263C32.7352 37.5266 32.573 37.5273 32.4108 37.5284C32.1837 37.53 31.9567 37.5299 31.7296 37.5295C31.6628 37.5303 31.596 37.5311 31.5272 37.5319C31.1364 37.5292 30.8213 37.4863 30.4998 37.2501C30.2531 36.9727 30.2129 36.6961 30.23 36.3309C30.2708 36.0356 30.4064 35.9047 30.617 35.7032C30.884 35.5109 31.1091 35.4925 31.4319 35.4913Z" fill="#ED640F"/>
</g>
<defs>
<clipPath id="clip0_2055_518">
<rect width="32" height="32" fill="white" transform="translate(19 19)"/>
</clipPath>
</defs>
</svg>
