<svg width="70" height="70" viewBox="0 0 70 70" fill="none" xmlns="http://www.w3.org/2000/svg">
<rect width="70" height="70" rx="10" fill="#FDF0E6"/>
<path d="M36.1917 14.6285C37.514 15.2853 38.8225 15.4286 40.2335 14.9917C40.6351 14.8565 41.0093 14.6809 41.3879 14.4917C41.8861 14.2438 42.3185 14.1124 42.8747 14.2303C43.2748 14.4194 43.514 14.6467 43.695 15.0506C43.9415 16.6172 43.2412 18.4107 42.7927 19.8904C42.8678 19.9116 42.9428 19.9327 43.0202 19.9545C43.481 20.1285 43.7309 20.4833 43.9684 20.9046C44.281 21.5972 44.2889 22.2959 44.0232 23.0063C43.8948 23.265 43.7293 23.4548 43.531 23.6638C43.6437 24.0188 43.7974 24.1935 44.0795 24.4329C44.3323 24.6519 44.5792 24.8702 44.8127 25.1096C45.007 25.3076 45.2076 25.4925 45.4177 25.6736C45.9565 26.1398 46.4314 26.6505 46.8942 27.1912C46.961 27.267 47.0277 27.3428 47.0964 27.4209C48.0458 28.5085 48.8569 29.6815 49.5192 30.9646C49.5453 31.0151 49.5714 31.0656 49.5983 31.1176C50.8884 33.6547 51.3889 36.7208 50.5037 39.4737C50.4261 39.7016 50.3437 39.9274 50.2575 40.1521C50.4006 40.1482 50.4006 40.1482 50.5466 40.1441C51.562 40.1457 52.7962 40.5498 53.5679 41.223C53.9913 41.6856 54.1829 42.1443 54.195 42.7771C54.1503 43.3934 53.9535 43.8769 53.5388 44.3357C53.3473 44.4759 53.3473 44.4759 53.1305 44.6094C53.0103 44.6836 53.0103 44.6836 52.8876 44.7593C52.48 45.0038 52.0697 45.243 51.6572 45.479C51.5655 45.5317 51.4737 45.5845 51.3792 45.6388C51.0875 45.8063 50.7956 45.9734 50.5036 46.1404C50.4559 46.1677 50.4082 46.195 50.3591 46.2231C49.9279 46.4696 49.4966 46.716 49.0652 46.9621C48.4225 47.329 47.7811 47.6979 47.1403 48.0681C46.3551 48.5219 45.5684 48.9729 44.7807 49.4222C44.1706 49.7704 43.5613 50.1199 42.9532 50.4715C42.6014 50.6748 42.2493 50.8775 41.8973 51.0802C41.6513 51.2223 41.406 51.3654 41.1607 51.5086C39.2855 52.5961 37.179 53.7969 34.9536 53.8001C34.8818 53.8021 34.8101 53.8041 34.7362 53.8062C33.5611 53.8112 32.4594 53.3728 31.3894 52.932C31.267 52.8824 31.1446 52.8328 31.0221 52.7833C30.6996 52.6527 30.3775 52.521 30.0555 52.3891C29.7232 52.2533 29.3906 52.1184 29.058 51.9835C28.5379 51.7723 28.0179 51.5606 27.4981 51.3484C26.9124 51.1093 26.3261 50.8714 25.7395 50.6345C25.5952 50.5762 25.4509 50.5179 25.3066 50.4596C25.2415 50.4333 25.1763 50.407 25.1091 50.3799C24.8172 50.2619 24.5254 50.1438 24.2338 50.0254C24.1007 49.9714 24.1007 49.9714 23.9649 49.9163C23.8407 49.8647 23.7177 49.8099 23.5974 49.7498C23.6002 49.827 23.6031 49.9042 23.606 49.9837C23.6082 50.0858 23.6105 50.188 23.6127 50.2932C23.6156 50.3941 23.6185 50.495 23.6214 50.5989C23.5949 50.9294 23.5334 51.1146 23.3513 51.3904C23.0159 51.6495 22.7173 51.6722 22.3075 51.6696C22.2138 51.6705 22.2138 51.6705 22.1182 51.6714C21.9123 51.6728 21.7066 51.6725 21.5008 51.6721C21.3572 51.6724 21.2137 51.6729 21.0702 51.6734C20.7696 51.6741 20.469 51.6739 20.1685 51.6731C19.7838 51.6721 19.3993 51.6738 19.0147 51.6762C18.7183 51.6777 18.422 51.6777 18.1256 51.6772C17.9839 51.6772 17.8421 51.6777 17.7003 51.6787C17.5018 51.6799 17.3034 51.6791 17.1049 51.6777C17.0467 51.6784 16.9885 51.6792 16.9286 51.6801C16.5175 51.674 16.2723 51.5859 15.9685 51.3084C15.8234 50.906 15.7837 50.5498 15.783 50.124C15.7827 50.0653 15.7824 50.0066 15.7821 49.9461C15.7812 49.7508 15.7815 49.5556 15.7819 49.3603C15.7815 49.2197 15.7811 49.0791 15.7806 48.9385C15.7795 48.5577 15.7795 48.1769 15.7797 47.7961C15.7797 47.4778 15.7793 47.1596 15.779 46.8414C15.778 46.0906 15.778 45.3398 15.7785 44.5891C15.779 43.815 15.778 43.041 15.7762 42.267C15.7748 41.6018 15.7743 40.9366 15.7746 40.2715C15.7747 39.8744 15.7745 39.4774 15.7734 39.0804C15.7723 38.7071 15.7725 38.3339 15.7736 37.9606C15.7738 37.8238 15.7735 37.687 15.7729 37.5502C15.772 37.363 15.7727 37.176 15.7737 36.9889C15.7737 36.8843 15.7737 36.7797 15.7737 36.6719C15.815 36.278 15.9214 35.9496 16.19 35.6477C16.4622 35.5188 16.7228 35.5227 17.018 35.5239C17.0821 35.5232 17.1461 35.5225 17.2121 35.5218C17.4237 35.5199 17.6353 35.5198 17.8468 35.5199C17.9942 35.5193 18.1415 35.5187 18.2888 35.518C18.5976 35.5169 18.9064 35.5168 19.2152 35.5173C19.6104 35.5178 20.0055 35.5153 20.4007 35.5119C20.705 35.5098 21.0093 35.5096 21.3136 35.5099C21.4593 35.5097 21.6049 35.5089 21.7506 35.5075C21.9546 35.5057 22.1585 35.5065 22.3625 35.5079C22.4224 35.5068 22.4822 35.5057 22.5439 35.5046C22.8555 35.5097 23.0622 35.5576 23.3054 35.7461C23.819 36.2903 23.5974 36.9173 23.5974 37.6912C24.626 37.6912 25.6547 37.6912 26.7146 37.6912C26.7095 37.3139 26.7044 36.9366 26.6992 36.5479C26.6953 35.6166 26.7256 34.7399 26.9607 33.8357C26.9876 33.7319 27.0146 33.628 27.0424 33.5211C27.6173 31.4637 28.6746 29.6719 29.9958 28.0115C30.0309 27.9668 30.0659 27.9222 30.102 27.8762C30.6894 27.1346 31.3584 26.4701 32.0261 25.8018C32.0707 25.7571 32.1153 25.7124 32.1612 25.6664C32.6123 25.2154 33.0631 24.7682 33.555 24.3609C33.7031 24.2234 33.8165 24.0745 33.9333 23.9099C33.8947 23.8692 33.8561 23.8285 33.8163 23.7866C33.7397 23.703 33.7397 23.703 33.6616 23.6177C33.6111 23.5635 33.5607 23.5092 33.5087 23.4533C33.0315 22.8166 33.0343 22.1253 33.113 21.367C33.2798 20.7947 33.6312 20.3396 34.0974 19.9724C34.2061 19.9165 34.3154 19.8616 34.4255 19.8084C34.4032 19.7277 34.4032 19.7277 34.3805 19.6454C34.2236 19.074 34.0732 18.5013 33.9282 17.9268C33.9072 17.8452 33.8862 17.7636 33.8646 17.6796C33.3052 15.461 33.3052 15.461 33.6975 14.7686C34.3673 13.8476 35.3414 14.205 36.1917 14.6285ZM35.4099 16.3631C35.6033 17.4831 35.8896 18.5879 36.3122 19.6443C37.8282 19.6443 39.3441 19.6443 40.906 19.6443C41.1785 18.9704 41.1785 18.9704 41.3917 18.2889C41.4166 18.1968 41.4414 18.1047 41.467 18.0098C41.4917 17.9164 41.5163 17.823 41.5417 17.7268C41.5676 17.6316 41.5935 17.5363 41.6202 17.4381C41.7639 16.908 41.7639 16.908 41.8083 16.3631C41.7624 16.377 41.7165 16.391 41.6692 16.4054C41.2446 16.5337 40.8192 16.6596 40.3933 16.7835C40.2998 16.8108 40.2063 16.838 40.11 16.8661C38.6249 17.2568 37.1398 16.9796 35.7383 16.4233C35.5774 16.3537 35.5774 16.3537 35.4099 16.3631ZM34.9997 21.531C34.8064 21.7678 34.8064 21.7678 34.851 22.0642C34.9209 22.3965 34.9209 22.3965 35.1638 22.5974C35.3884 22.6222 35.5944 22.6319 35.819 22.6306C35.8858 22.6311 35.9525 22.6317 36.0212 22.6323C36.242 22.6338 36.4628 22.6335 36.6836 22.633C36.8369 22.6334 36.9903 22.6338 37.1437 22.6343C37.4652 22.635 37.7868 22.6348 38.1083 22.634C38.5205 22.6331 38.9327 22.6347 39.3449 22.6371C39.6617 22.6386 39.9784 22.6386 40.2952 22.6382C40.4471 22.6381 40.5991 22.6386 40.7511 22.6397C40.9636 22.6409 41.176 22.64 41.3885 22.6386C41.4514 22.6394 41.5142 22.6402 41.579 22.641C41.863 22.6371 42.0256 22.6185 42.2578 22.4491C42.4385 22.1887 42.4219 22.0041 42.3825 21.6951C42.2694 21.5254 42.1933 21.4685 42.002 21.403C41.7317 21.3527 41.4642 21.3549 41.1902 21.3551C41.1284 21.3548 41.0666 21.3545 41.0029 21.3542C40.799 21.3534 40.595 21.3533 40.391 21.3532C40.249 21.3529 40.107 21.3527 39.965 21.3524C39.6675 21.3519 39.3699 21.3517 39.0724 21.3518C38.6914 21.3518 38.3103 21.3507 37.9293 21.3492C37.6361 21.3483 37.3428 21.3482 37.0496 21.3482C36.9091 21.3481 36.7686 21.3478 36.6282 21.3471C36.4316 21.3463 36.2351 21.3465 36.0386 21.347C35.9518 21.3464 35.9518 21.3464 35.8633 21.3456C35.5404 21.3477 35.2851 21.3751 34.9997 21.531ZM35.0817 25.3865C34.9557 25.5201 34.8279 25.6522 34.6972 25.7813C34.6445 25.8343 34.5917 25.8872 34.5373 25.9418C34.3761 26.094 34.2121 26.2388 34.0442 26.3834C33.0567 27.2428 32.0921 28.1912 31.3083 29.242C31.2387 29.331 31.1691 29.42 31.0994 29.5089C29.5435 31.526 28.4128 33.9141 28.427 36.5017C28.4266 36.5598 28.4263 36.6178 28.426 36.6777C28.4267 37.0767 28.4632 37.4602 28.5192 37.8552C28.6106 37.8732 28.702 37.8912 28.7961 37.9097C30.502 38.2585 32.7774 38.943 33.8389 40.4494C34.2554 40.7635 34.6927 40.7006 35.2003 40.6965C35.3097 40.6972 35.4192 40.6981 35.5286 40.6991C35.8166 40.7015 36.1046 40.7015 36.3926 40.7009C36.8516 40.7003 37.3107 40.7029 37.7697 40.7061C37.9287 40.7068 38.0877 40.7063 38.2466 40.7058C39.3277 40.7091 40.2763 40.8201 41.103 41.5659C41.4782 41.9805 41.6753 42.5147 41.8903 43.0232C42.7804 42.6333 43.6585 42.2266 44.5256 41.7876C45.1074 41.494 45.6897 41.2038 46.2841 40.9365C46.3431 40.9099 46.402 40.8832 46.4627 40.8557C46.7462 40.7312 47.0236 40.6264 47.3233 40.5479C47.9147 40.402 47.9147 40.402 48.3807 40.0307C48.5168 39.7738 48.6116 39.527 48.6989 39.2498C48.7313 39.151 48.7636 39.0523 48.797 38.9505C49.2637 37.4198 49.2638 35.7137 48.863 34.1638C48.8484 34.1071 48.8339 34.0504 48.8189 33.9919C48.2301 31.8044 46.9126 29.9219 45.4177 28.2576C45.3793 28.2141 45.3408 28.1706 45.3012 28.1258C44.4592 27.1734 43.5291 26.31 42.5774 25.4685C42.2353 25.1645 41.9371 24.8352 41.6442 24.4842C41.4943 24.3342 41.2571 24.383 41.0552 24.3772C40.9757 24.3748 40.9757 24.3748 40.8947 24.3724C40.4033 24.3585 39.9118 24.3506 39.4203 24.3444C39.0904 24.3402 38.7607 24.3341 38.4309 24.3234C38.1116 24.313 37.7926 24.3076 37.4732 24.3055C37.3521 24.3039 37.231 24.3006 37.11 24.2955C36.0688 24.2537 35.6776 24.5972 35.0817 25.3865ZM17.6091 37.281C17.6091 41.4499 17.6091 45.6187 17.6091 49.9138C19.0039 49.9138 20.3986 49.8768 21.7927 49.8318C21.7927 45.6901 21.7927 41.5483 21.7927 37.281C20.4121 37.281 19.0315 37.281 17.6091 37.281ZM23.5974 39.4959C23.5974 42.257 23.5974 45.0182 23.5974 47.8631C25.2006 48.5084 25.2006 48.5084 26.8039 49.1535C27.3779 49.3843 27.9518 49.6152 28.5256 49.8462C29.0293 50.049 29.533 50.2516 30.0367 50.4542C30.228 50.5311 30.4192 50.6081 30.6104 50.6851C33.7926 52.0613 33.7926 52.0613 37.1247 51.5279C38.2356 51.0528 39.3133 50.5297 40.3471 49.9042C40.7952 49.6336 41.2504 49.3755 41.7054 49.1168C42.4893 48.671 43.2707 48.2215 44.0488 47.7657C44.7574 47.3506 45.4703 46.9439 46.1861 46.5413C46.8264 46.1805 47.4614 45.8111 48.0955 45.4394C48.549 45.174 49.0037 44.9108 49.4603 44.6507C49.5109 44.6219 49.5615 44.593 49.6137 44.5633C49.8588 44.4237 50.1041 44.2844 50.3496 44.1454C51.4298 43.585 51.4298 43.585 52.3903 42.8592C52.3952 42.6934 52.3952 42.6934 52.3083 42.531C52.0341 42.3458 51.7579 42.2215 51.447 42.1106C51.3717 42.0833 51.2964 42.0561 51.2188 42.0279C50.7124 41.8664 50.2263 41.8516 49.6987 41.844C49.6216 41.841 49.5444 41.8379 49.4649 41.8347C48.1106 41.8184 46.9197 42.4827 45.7407 43.0745C45.5913 43.1486 45.4419 43.2226 45.2925 43.2964C45.0005 43.4408 44.7088 43.5856 44.4171 43.7306C43.9243 43.9751 43.4282 44.2127 42.9311 44.4485C42.7879 44.5169 42.6446 44.5854 42.5014 44.6539C42.2764 44.7614 42.0511 44.8679 41.8253 44.9737C41.4038 45.1754 41.0726 45.3753 40.7301 45.6914C40.137 46.1621 39.4392 46.188 38.7133 46.1829C38.6121 46.1834 38.5109 46.184 38.4066 46.1846C38.1315 46.1858 37.8565 46.1855 37.5815 46.1845C37.2927 46.1836 37.0039 46.1844 36.7152 46.1849C36.231 46.1855 35.7468 46.1848 35.2626 46.1832C34.7032 46.1814 34.1437 46.182 33.5843 46.1838C33.1028 46.1853 32.6213 46.1855 32.1398 46.1846C31.8527 46.1841 31.5656 46.184 31.2785 46.1851C30.9591 46.1863 30.6396 46.1847 30.3201 46.1829C30.2252 46.1835 30.1302 46.1842 30.0324 46.1849C29.9455 46.184 29.8586 46.183 29.769 46.1821C29.6558 46.1819 29.6558 46.1819 29.5403 46.1817C29.2775 46.1277 29.1802 46.0159 29.0114 45.8123C28.9126 45.6146 28.9229 45.5083 28.9397 45.2893C28.9432 45.2261 28.9468 45.1629 28.9505 45.0977C29.0441 44.8093 29.1595 44.7375 29.4216 44.5818C29.7376 44.5332 30.051 44.539 30.3702 44.5422C30.4661 44.5419 30.5621 44.5416 30.6609 44.5413C30.8692 44.5408 31.0774 44.541 31.2856 44.542C31.6152 44.5434 31.9448 44.5428 32.2745 44.5416C33.0338 44.5392 33.7932 44.5401 34.5525 44.541C35.2482 44.5418 35.9439 44.5419 36.6397 44.5394C37.0196 44.5381 37.3995 44.5394 37.7795 44.541C37.9788 44.5406 38.1782 44.54 38.3775 44.5394C38.4676 44.5403 38.5577 44.5412 38.6506 44.5422C39.174 44.538 39.4975 44.4869 39.9216 44.1717C40.1234 43.8879 40.1687 43.7357 40.1626 43.3872C40.076 43.0698 39.9959 42.921 39.7575 42.6951C39.3525 42.4903 39.0618 42.4188 38.6014 42.4226C38.5464 42.4227 38.4913 42.4228 38.4346 42.4229C38.3162 42.4232 38.1977 42.424 38.0792 42.4253C37.8912 42.4272 37.7032 42.4273 37.5152 42.4269C36.9809 42.4258 36.4467 42.4272 35.9124 42.4318C35.5846 42.4345 35.2569 42.4344 34.9291 42.4326C34.8049 42.4324 34.6806 42.4333 34.5564 42.4354C33.4659 42.4527 33.4659 42.4527 33.0433 42.0866C32.9546 41.991 32.868 41.8933 32.7849 41.7927C32.7237 41.7354 32.6626 41.6781 32.5997 41.6191C32.5491 41.5715 32.4986 41.5239 32.4465 41.4749C30.8799 40.0884 28.9315 39.4781 26.8658 39.4879C26.7826 39.4879 26.6994 39.488 26.6137 39.4881C26.3055 39.4885 25.9973 39.4897 25.6892 39.4907C24.9989 39.4924 24.3086 39.4941 23.5974 39.4959Z" fill="#ED640F"/>
<path d="M39.5789 26.8071C39.7583 26.9455 39.7583 26.9455 39.9224 27.1916C39.9384 27.431 39.9384 27.431 39.9326 27.6992C39.9311 27.7883 39.9296 27.8774 39.9281 27.9693C39.9262 28.0375 39.9243 28.1057 39.9224 28.176C40.0137 28.1675 40.1051 28.159 40.1992 28.1503C40.7318 28.1532 41.1779 28.3883 41.57 28.7393C42.0649 29.2759 42.2681 29.7798 42.249 30.5113C42.2083 30.7948 42.1039 30.9413 41.8911 31.1291C41.6057 31.2718 41.3008 31.2474 40.9888 31.2111C40.7117 31.0786 40.6102 30.9697 40.5052 30.6814C40.4626 30.5348 40.4234 30.3871 40.3879 30.2386C40.3697 30.1806 40.3514 30.1225 40.3325 30.0627C39.977 29.8849 39.4977 29.9655 39.1072 29.9653C39.0082 29.9643 38.9093 29.9633 38.8074 29.9622C38.7127 29.9621 38.618 29.9619 38.5205 29.9617C38.4334 29.9614 38.3464 29.9611 38.2568 29.9607C38.0173 29.9646 38.0173 29.9646 37.7895 30.1447C37.7527 30.3324 37.7527 30.3324 37.7597 30.5497C37.7598 30.6299 37.7598 30.7101 37.7599 30.7926C37.7612 30.8766 37.7625 30.9606 37.7639 31.0471C37.7636 31.131 37.7634 31.215 37.7631 31.3015C37.7368 31.7526 37.7368 31.7526 37.9536 32.1135C38.2113 32.1373 38.2113 32.1373 38.515 32.133C38.6304 32.1343 38.7457 32.1356 38.8611 32.137C39.0421 32.1384 39.2231 32.1391 39.4042 32.1385C40.2282 32.1375 40.9402 32.1778 41.5739 32.7689C42.1979 33.4208 42.2615 34.0106 42.2558 34.8903C42.2551 35.0554 42.2575 35.2203 42.2601 35.3854C42.2597 36.1877 42.149 36.8594 41.563 37.4455C41.1294 37.7608 40.7735 37.9519 40.23 37.9428C40.0777 37.9403 40.0777 37.9403 39.9224 37.9377C39.9262 38.004 39.93 38.0703 39.9339 38.1386C39.9583 38.861 39.9583 38.861 39.7685 39.1835C39.4744 39.4344 39.2543 39.4462 38.8774 39.4437C38.5832 39.397 38.4566 39.2336 38.2817 39.0041C38.1733 38.7872 38.1918 38.6204 38.1946 38.3786C38.1953 38.2963 38.1961 38.2141 38.1968 38.1293C38.1978 38.0661 38.1987 38.0028 38.1997 37.9377C38.1083 37.9461 38.017 37.9546 37.9228 37.9633C37.3901 37.9605 36.9472 37.7243 36.552 37.3772C36.0813 36.8737 35.846 36.3448 35.8676 35.6504C35.9296 35.3449 36.0899 35.197 36.313 34.9846C36.5771 34.8525 36.8469 34.8656 37.1333 34.9025C37.5528 35.1123 37.6562 35.4551 37.8062 35.875C37.8562 36.047 37.8562 36.047 37.9536 36.133C38.3188 36.1561 38.6849 36.152 39.0508 36.1535C39.154 36.1552 39.2572 36.1569 39.3635 36.1586C39.5117 36.1593 39.5117 36.1593 39.6628 36.1599C39.7538 36.1607 39.8448 36.1614 39.9385 36.1622C40.1668 36.1507 40.1668 36.1507 40.3209 36.0304C40.5016 35.7535 40.4531 35.4333 40.4504 35.1127C40.4521 35.0423 40.4537 34.9718 40.4554 34.8992C40.4553 34.831 40.4553 34.7629 40.4552 34.6926C40.4554 34.6306 40.4555 34.5686 40.4557 34.5047C40.3958 34.2481 40.2981 34.1548 40.0864 34.0002C39.8224 33.9541 39.8224 33.9541 39.5269 33.9646C39.4159 33.9638 39.3048 33.963 39.1937 33.9622C39.0204 33.9629 38.8471 33.9643 38.6738 33.9661C37.8557 33.972 37.1753 33.9232 36.548 33.3472C35.899 32.6803 35.8633 31.9833 35.8721 31.0932C35.8711 30.9967 35.8702 30.9002 35.8692 30.8008C35.8721 29.9264 36.0035 29.3078 36.6155 28.6643C37.0047 28.3356 37.4533 28.1606 37.9639 28.1555C38.0417 28.1622 38.1195 28.169 38.1997 28.176C38.1954 28.0854 38.1954 28.0854 38.191 27.993C38.1682 27.1708 38.1682 27.1708 38.4458 26.8635C38.7876 26.6071 39.2042 26.6322 39.5789 26.8071Z" fill="#ED640F"/>
</svg>
