<svg width="70" height="70" viewBox="0 0 70 70" fill="none" xmlns="http://www.w3.org/2000/svg">
<rect width="70" height="70" rx="10" fill="#FDF0E6"/>
<g clip-path="url(#clip0_2055_521)">
<path d="M45.9794 25.0656C46.0773 25.0646 46.0773 25.0646 46.1773 25.0636C46.3921 25.062 46.6068 25.0638 46.8216 25.0658C46.9714 25.0657 47.1212 25.0655 47.2709 25.0651C47.5844 25.0649 47.8977 25.0662 48.2112 25.0688C48.6127 25.072 49.0141 25.0715 49.4157 25.0697C49.7248 25.0687 50.0338 25.0695 50.3429 25.071C50.491 25.0714 50.639 25.0714 50.7871 25.0708C50.994 25.0703 51.2008 25.0722 51.4077 25.0748C51.5254 25.0754 51.643 25.0759 51.7643 25.0765C52.1151 25.1333 52.2225 25.2232 52.4375 25.4998C52.5517 25.7283 52.5429 25.8736 52.5428 26.1291C52.5429 26.2229 52.5431 26.3166 52.5433 26.4133C52.5431 26.517 52.5428 26.6208 52.5425 26.7277C52.5426 26.8922 52.5426 26.8922 52.5427 27.06C52.5429 27.3653 52.5426 27.6706 52.5421 27.9759C52.5417 28.3047 52.5418 28.6336 52.5419 28.9624C52.542 29.5325 52.5417 30.1026 52.5411 30.6727C52.5404 31.4969 52.5401 32.3212 52.54 33.1454C52.5398 34.4826 52.5392 35.8198 52.5383 37.157C52.5374 38.4562 52.5368 39.7554 52.5364 41.0546C52.5363 41.1746 52.5363 41.1746 52.5363 41.2971C52.5362 41.6986 52.5361 42.1001 52.5359 42.5017C52.535 45.8344 52.5333 49.1671 52.5312 52.4998C52.6088 52.4973 52.6863 52.4949 52.7662 52.4923C53.1176 52.4826 53.4689 52.4765 53.8203 52.4705C53.9423 52.4666 54.0644 52.4626 54.1902 52.4586C54.3074 52.4571 54.4246 52.4556 54.5454 52.454C54.6534 52.4516 54.7614 52.4491 54.8727 52.4466C55.1562 52.4998 55.1562 52.4998 55.379 52.7194C55.5662 53.0257 55.5901 53.1778 55.5312 53.531C55.383 53.7793 55.383 53.7793 55.1562 53.9998C54.8516 54.0585 54.8516 54.0585 54.4816 54.0588C54.379 54.0598 54.379 54.0598 54.2743 54.0608C54.0439 54.0626 53.8136 54.0609 53.5832 54.0593C53.4169 54.0599 53.2506 54.0606 53.0842 54.0615C52.6262 54.0635 52.1681 54.0625 51.7101 54.0611C51.2164 54.06 50.7228 54.0616 50.2292 54.0629C49.2618 54.065 48.2945 54.0646 47.3271 54.0632C46.5411 54.0621 45.7551 54.062 44.9692 54.0625C44.8574 54.0626 44.7457 54.0627 44.6306 54.0627C44.4037 54.0629 44.1767 54.063 43.9498 54.0632C41.8201 54.0645 39.6905 54.063 37.5608 54.0605C35.7321 54.0584 33.9035 54.0587 32.0748 54.0609C29.9529 54.0634 27.831 54.0644 25.7091 54.063C25.483 54.0628 25.2569 54.0627 25.0308 54.0625C24.9195 54.0624 24.8083 54.0624 24.6936 54.0623C23.9083 54.0619 23.123 54.0626 22.3376 54.0637C21.381 54.065 20.4244 54.0646 19.4678 54.0621C18.9793 54.0609 18.491 54.0604 18.0026 54.062C17.5559 54.0634 17.1093 54.0626 16.6626 54.0601C16.5006 54.0596 16.3386 54.0599 16.1766 54.061C15.9571 54.0624 15.7379 54.061 15.5184 54.0588C15.3963 54.0587 15.2742 54.0586 15.1484 54.0585C14.8437 53.9998 14.8437 53.9998 14.617 53.7793C14.4344 53.4735 14.4103 53.3192 14.4687 52.9685C14.621 52.7194 14.621 52.7194 14.8437 52.4998C15.1273 52.4466 15.1273 52.4466 15.4546 52.454C15.5718 52.4555 15.689 52.457 15.8098 52.4586C15.9318 52.4625 16.0539 52.4664 16.1797 52.4705C16.3032 52.4726 16.4267 52.4747 16.5539 52.4769C16.859 52.4824 17.1638 52.4901 17.4687 52.4998C17.4681 52.3939 17.4675 52.2881 17.4668 52.1791C17.4611 51.1817 17.4569 50.1844 17.4542 49.1871C17.4527 48.6743 17.4507 48.1616 17.4475 47.6488C17.4445 47.154 17.4428 46.6593 17.442 46.1644C17.4415 45.9756 17.4405 45.7868 17.439 45.5981C17.4369 45.3337 17.4367 45.0693 17.4368 44.8049C17.4358 44.7268 17.4348 44.6487 17.4337 44.5683C17.436 44.1373 17.4619 43.8443 17.75 43.4998C18.0649 43.2687 18.3738 43.2885 18.7554 43.288C18.8492 43.2875 18.8492 43.2875 18.9449 43.287C19.1511 43.2862 19.3573 43.2868 19.5635 43.2874C19.707 43.2873 19.8506 43.2871 19.9942 43.2868C20.295 43.2866 20.5957 43.287 20.8964 43.2878C21.2816 43.2889 21.6669 43.2883 22.0521 43.2872C22.3485 43.2865 22.645 43.2867 22.9414 43.2872C23.0835 43.2873 23.2255 43.2872 23.3676 43.2867C23.5661 43.2863 23.7647 43.287 23.9633 43.288C24.0762 43.2882 24.1892 43.2883 24.3056 43.2885C24.5857 43.3116 24.7391 43.342 24.9687 43.4998C25.2153 43.8696 25.1811 44.1844 25.1775 44.6133C25.1775 44.6984 25.1776 44.7835 25.1776 44.8711C25.1775 45.1527 25.176 45.4342 25.1745 45.7157C25.1742 45.9108 25.1739 46.1059 25.1737 46.301C25.173 46.8147 25.1712 47.3283 25.1691 47.842C25.1672 48.3661 25.1663 48.8902 25.1654 49.4143C25.1634 50.4428 25.1602 51.4713 25.1562 52.4998C25.6512 52.4998 26.1462 52.4998 26.6562 52.4998C26.6554 52.315 26.6546 52.1303 26.6537 51.94C26.646 50.2017 26.6405 48.4635 26.6368 46.7253C26.6349 45.8316 26.6322 44.9379 26.6279 44.0442C26.6242 43.2653 26.6218 42.4865 26.6209 41.7076C26.6205 41.2951 26.6193 40.8826 26.6166 40.4701C26.614 40.082 26.6132 39.6939 26.6138 39.3058C26.6137 39.1632 26.613 39.0207 26.6115 38.8781C26.6097 38.6836 26.6101 38.4892 26.6111 38.2947C26.6108 38.1858 26.6104 38.0769 26.6101 37.9648C26.6664 37.6263 26.7594 37.5159 27.0312 37.3123C27.3336 37.2647 27.3336 37.2647 27.6961 37.2638C27.7954 37.2628 27.7954 37.2628 27.8967 37.2618C28.1151 37.2601 28.3333 37.2612 28.5517 37.2625C28.7037 37.2622 28.8557 37.2619 29.0077 37.2614C29.3261 37.2608 29.6445 37.2616 29.9629 37.2634C30.3708 37.2655 30.7787 37.2643 31.1867 37.2621C31.5005 37.2607 31.8143 37.2611 32.1281 37.2621C32.2785 37.2624 32.4289 37.2621 32.5794 37.2612C32.7897 37.2602 32.9998 37.2617 33.2101 37.2638C33.3297 37.2641 33.4493 37.2644 33.5726 37.2647C33.9388 37.3223 34.0263 37.3969 34.25 37.6873C34.2961 37.9648 34.2961 37.9648 34.2951 38.2947C34.2954 38.3555 34.2957 38.4163 34.296 38.479C34.2967 38.6826 34.2946 38.886 34.2925 39.0896C34.2924 39.2356 34.2925 39.3816 34.2927 39.5276C34.2928 39.9239 34.2906 40.3201 34.288 40.7164C34.2857 41.1305 34.2854 41.5447 34.285 41.9588C34.2838 42.7431 34.2807 43.5273 34.277 44.3115C34.2728 45.2043 34.2707 46.0972 34.2688 46.99C34.2649 48.8266 34.2583 50.6632 34.25 52.4998C34.745 52.4998 35.24 52.4998 35.75 52.4998C35.7496 52.3924 35.7493 52.285 35.7489 52.1743C35.7406 49.5635 35.7344 46.9526 35.7305 44.3417C35.7302 44.0906 35.7298 43.8394 35.7294 43.5883C35.7293 43.5259 35.7292 43.4634 35.7291 43.3991C35.7274 42.3879 35.7245 41.3766 35.721 40.3654C35.7175 39.328 35.7155 38.2906 35.7147 37.2533C35.7142 36.6705 35.713 36.0877 35.7103 35.5049C35.7078 34.9568 35.707 34.4086 35.7076 33.8604C35.7075 33.6589 35.7067 33.4574 35.7053 33.2559C35.7034 32.9813 35.7039 32.7069 35.7049 32.4323C35.7038 32.3521 35.7027 32.2718 35.7016 32.1891C35.7052 31.8322 35.7078 31.6519 35.9214 31.3566C36.2146 31.1577 36.4375 31.1709 36.7898 31.17C36.856 31.1694 36.9222 31.1687 36.9904 31.168C37.2088 31.1664 37.4271 31.1675 37.6455 31.1687C37.7975 31.1685 37.9495 31.1681 38.1015 31.1676C38.4199 31.1671 38.7382 31.1679 39.0566 31.1696C39.4646 31.1718 39.8725 31.1706 40.2804 31.1683C40.5942 31.167 40.9081 31.1674 41.2219 31.1684C41.3723 31.1686 41.5227 31.1683 41.6731 31.1674C41.8834 31.1665 42.0936 31.1679 42.3039 31.17C42.4235 31.1703 42.5431 31.1706 42.6663 31.1709C42.9687 31.2185 42.9687 31.2185 43.1723 31.3566C43.4256 31.7067 43.3946 32.0102 43.3888 32.4323C43.3891 32.518 43.3895 32.6037 43.3898 32.692C43.3904 32.9798 43.3883 33.2675 43.3863 33.5552C43.3862 33.7613 43.3863 33.9673 43.3865 34.1733C43.3866 34.7333 43.3844 35.2932 43.3817 35.8531C43.3794 36.4381 43.3792 37.023 43.3787 37.608C43.3777 38.59 43.3754 39.5719 43.372 40.5539C43.3686 41.5654 43.3659 42.5768 43.3643 43.5883C43.3642 43.6506 43.3641 43.713 43.364 43.7772C43.3635 44.09 43.3631 44.4028 43.3626 44.7156C43.3587 47.3103 43.3521 49.905 43.3437 52.4998C43.8387 52.4998 44.3337 52.4998 44.8437 52.4998C44.8433 52.3616 44.8429 52.2233 44.8424 52.0809C44.8323 48.8008 44.8245 45.5207 44.8198 42.2406C44.8192 41.8371 44.8186 41.4335 44.818 41.0299C44.8179 40.9496 44.8177 40.8693 44.8176 40.7865C44.8156 39.4849 44.8119 38.1833 44.8076 36.8818C44.8032 35.5466 44.8006 34.2115 44.7996 32.8763C44.799 32.0522 44.7969 31.2281 44.7931 30.404C44.7907 29.8391 44.7899 29.2743 44.7905 28.7095C44.7908 28.3834 44.7904 28.0574 44.7878 27.7313C44.7855 27.378 44.7861 27.0247 44.7874 26.6714C44.786 26.568 44.7846 26.4647 44.7832 26.3583C44.79 25.6668 44.79 25.6668 45.0622 25.2955C45.3861 25.0746 45.5887 25.0659 45.9794 25.0656ZM46.4375 26.7185C46.4375 35.2263 46.4375 43.7342 46.4375 52.4998C47.9225 52.4998 49.4075 52.4998 50.9375 52.4998C50.9375 43.992 50.9375 35.4842 50.9375 26.7185C49.4525 26.7185 47.9675 26.7185 46.4375 26.7185ZM37.3437 32.8123C37.3437 39.3092 37.3437 45.806 37.3437 52.4998C38.8287 52.4998 40.3137 52.4998 41.8437 52.4998C41.8437 46.0029 41.8437 39.506 41.8437 32.8123C40.3587 32.8123 38.8737 32.8123 37.3437 32.8123ZM28.1562 38.8123C28.1562 43.3292 28.1562 47.846 28.1562 52.4998C29.6412 52.4998 31.1262 52.4998 32.6562 52.4998C32.6562 47.9829 32.6562 43.466 32.6562 38.8123C31.1712 38.8123 29.6862 38.8123 28.1562 38.8123ZM19.0625 44.906C19.0625 47.412 19.0625 49.9179 19.0625 52.4998C20.5475 52.4998 22.0325 52.4998 23.5625 52.4998C23.5625 49.9938 23.5625 47.4879 23.5625 44.906C22.0775 44.906 20.5925 44.906 19.0625 44.906Z" fill="#ED640F"/>
<path d="M43.062 15.9849C43.1438 15.9848 43.2256 15.9846 43.3099 15.9845C43.4827 15.9846 43.6554 15.9857 43.8281 15.9877C44.0923 15.9904 44.3564 15.9896 44.6206 15.9884C44.7886 15.989 44.9566 15.9897 45.1245 15.9908C45.2429 15.9903 45.2429 15.9903 45.3637 15.9899C45.6912 15.9952 45.9106 16.0005 46.2026 16.157C46.5123 16.4998 46.4537 16.9292 46.4561 17.3637C46.4566 17.4392 46.4571 17.5146 46.4577 17.5924C46.4586 17.7521 46.4592 17.9117 46.4595 18.0714C46.4604 18.315 46.4634 18.5585 46.4663 18.8022C46.4669 18.9574 46.4674 19.1127 46.4678 19.268C46.4689 19.3405 46.4701 19.4131 46.4713 19.4879C46.4695 19.915 46.4229 20.193 46.1558 20.5314C45.8615 20.6785 45.6365 20.6582 45.312 20.6252C45.0425 20.4552 45.0425 20.4552 44.8433 20.1564C44.7781 19.8126 44.7563 19.4746 44.7495 19.1252C44.5756 19.3125 44.4018 19.5001 44.228 19.6877C44.1799 19.7395 44.1317 19.7913 44.0821 19.8448C43.823 20.1247 43.5691 20.4076 43.3209 20.6973C42.8948 21.1866 42.4328 21.6394 41.9722 22.0959C41.8852 22.1824 41.7982 22.269 41.7085 22.3582C41.5468 22.5191 41.385 22.6799 41.223 22.8406C40.8613 23.2 40.5011 23.561 40.1422 23.9232C39.9964 24.07 39.8505 24.2167 39.7046 24.3634C39.6325 24.4363 39.5604 24.5092 39.4862 24.5843C39.0374 25.0349 38.5754 25.4608 38.0933 25.8752C37.9425 26.0115 37.7921 26.1482 37.6421 26.2853C37.2392 26.6489 36.8241 26.9935 36.4021 27.3345C36.1528 27.5394 35.9088 27.7487 35.6655 27.9607C34.9358 28.5956 34.1762 29.184 33.4038 29.7659C33.2368 29.8924 33.0708 30.0201 32.9055 30.1488C29.0434 33.1548 24.8407 35.704 20.4793 37.9133C20.221 38.0453 19.9647 38.1802 19.7091 38.3172C19.6407 38.3532 19.5723 38.3893 19.5017 38.4265C19.3317 38.5162 19.1622 38.607 18.9928 38.698C18.6065 38.8428 18.3476 38.8449 17.937 38.8127C17.6497 38.6211 17.5788 38.4901 17.4741 38.1623C17.4669 37.8073 17.5382 37.6889 17.7495 37.4064C18.0054 37.2434 18.0054 37.2434 18.3164 37.0959C18.3726 37.0686 18.4288 37.0414 18.4867 37.0133C18.6073 36.9549 18.7283 36.8971 18.8495 36.8397C19.1708 36.6875 19.4899 36.5307 19.8091 36.3741C19.8733 36.3426 19.9376 36.3112 20.0038 36.2788C20.8509 35.8617 21.6657 35.3887 22.4827 34.9162C22.7674 34.7533 23.055 34.5964 23.3433 34.4399C27.1557 32.3623 30.7329 29.7952 34.0833 27.0426C34.2348 26.9184 34.3872 26.7952 34.5396 26.672C35.0341 26.2719 35.5112 25.8584 35.981 25.4295C36.2259 25.2121 36.4781 25.0073 36.7339 24.8029C37.1669 24.453 37.5593 24.0783 37.945 23.6772C38.1295 23.4946 38.3137 23.3275 38.5107 23.1597C39.0453 22.6964 39.54 22.1924 40.039 21.6916C40.2081 21.522 40.3778 21.3529 40.5474 21.1838C41.0415 20.69 41.5302 20.1968 41.9834 19.6647C42.2801 19.3188 42.5969 18.9906 42.9091 18.6588C43.1931 18.3552 43.4635 18.048 43.7183 17.7189C43.5843 17.7136 43.5843 17.7136 43.4476 17.7083C43.3301 17.7021 43.2125 17.696 43.0913 17.6896C42.9167 17.6814 42.9167 17.6814 42.7387 17.6731C42.397 17.6239 42.2108 17.5496 41.937 17.3439C41.7903 17.0505 41.7779 16.7241 41.8433 16.4064C42.1708 15.9369 42.5372 15.9779 43.062 15.9849Z" fill="#ED640F"/>
</g>
<defs>
<clipPath id="clip0_2055_521">
<rect width="42" height="40" fill="white" transform="translate(14 15)"/>
</clipPath>
</defs>
</svg>
