<svg width="70" height="70" viewBox="0 0 70 70" fill="none" xmlns="http://www.w3.org/2000/svg">
<rect width="70" height="70" rx="10" fill="#FDF0E6"/>
<g clip-path="url(#clip0_2055_520)">
<path d="M35.0342 23.9583C35.133 23.9551 35.2318 23.952 35.3337 23.9487C35.7687 24.0177 36.0931 24.1508 36.4219 24.4438C36.6701 24.7976 36.8519 25.1768 37.0371 25.5675C37.0916 25.6781 37.1462 25.7888 37.2023 25.9027C37.3193 26.1405 37.4354 26.3787 37.5506 26.6174C37.7423 27.0129 37.9382 27.4061 38.1351 27.7989C38.266 28.0608 38.3967 28.3229 38.5273 28.5849C38.59 28.7106 38.6527 28.8363 38.7173 28.9658C38.7747 29.0823 38.8322 29.1988 38.8914 29.3189C38.9426 29.4223 38.9938 29.5258 39.0466 29.6324C39.1563 29.882 39.1563 29.882 39.1563 30.104C39.2252 30.1083 39.2942 30.1126 39.3653 30.117C40.3825 30.1912 41.3869 30.3369 42.3949 30.4895C42.6916 30.5342 42.9885 30.5773 43.2854 30.6203C43.4763 30.649 43.6672 30.6777 43.8581 30.7066C43.9457 30.7191 44.0334 30.7316 44.1236 30.7445C44.7774 30.8461 45.5025 30.9807 45.9238 31.5468C46.2978 32.0825 46.3642 32.5717 46.2656 33.2115C45.9337 34.0386 45.215 34.6068 44.5725 35.1854C44.305 35.4282 44.0528 35.6797 43.806 35.944C43.7439 36.0101 43.6818 36.0762 43.6178 36.1442C43.4993 36.2715 43.382 36.4 43.2663 36.5299C42.8668 36.955 42.5767 37.0791 42 37.0959C41.7104 37.0086 41.6031 36.9269 41.4189 36.6867C41.3077 36.3072 41.367 36.0376 41.4531 35.6531C41.6778 35.3479 41.6778 35.3479 41.9709 35.0588C42.0229 35.0067 42.0749 34.9547 42.1284 34.9011C42.2937 34.7363 42.4613 34.5739 42.6289 34.4115C42.7399 34.3013 42.8507 34.191 42.9613 34.0805C43.4263 33.6193 43.8926 33.1734 44.4063 32.7676C44.3173 32.7531 44.2283 32.7386 44.1367 32.7237C44.0113 32.7033 43.886 32.6828 43.7568 32.6618C43.6172 32.6391 43.4775 32.6163 43.3336 32.5929C43.0262 32.5427 42.7188 32.4921 42.4115 32.4411C41.6847 32.3208 40.958 32.2028 40.2291 32.0965C40.1107 32.0785 39.9923 32.0605 39.8704 32.042C39.6505 32.0086 39.4303 31.977 39.2099 31.9472C38.571 31.8478 38.1852 31.7159 37.7344 31.2138C37.5378 30.9157 37.3785 30.6055 37.2217 30.2843C37.1761 30.1939 37.1306 30.1034 37.0837 30.0103C36.5562 28.9542 36.058 27.8832 35.5597 26.8128C35.4137 26.5018 35.263 26.1937 35.1094 25.8866C34.4183 27.1883 33.7655 28.5041 33.1433 29.8412C33.0644 30.0103 33.0644 30.0103 32.9838 30.1829C32.9375 30.2828 32.8912 30.3827 32.8435 30.4856C32.7972 30.5794 32.7509 30.6732 32.7031 30.7699C32.6335 30.9116 32.6335 30.9116 32.5625 31.0563C32.2414 31.5162 31.8728 31.7254 31.3423 31.8747C31.2055 31.8978 31.0688 31.9209 30.9279 31.9447C30.8148 31.9644 30.8148 31.9644 30.6994 31.9844C30.4562 32.0257 30.2126 32.0642 29.9688 32.1017C29.8464 32.1206 29.8464 32.1206 29.7216 32.1398C29.137 32.2289 28.5515 32.3116 27.9658 32.393C27.7079 32.429 27.4499 32.4651 27.192 32.5016C27.0336 32.524 26.8751 32.5462 26.7166 32.568C26.4011 32.6125 26.1156 32.6651 25.8125 32.7676C26.1584 33.1218 26.5049 33.4754 26.8516 33.8289C26.9486 33.9282 27.0456 34.0276 27.1455 34.1299C27.6452 34.6388 28.1501 35.132 28.6874 35.5997C28.9347 35.8164 29.1693 36.0441 29.4014 36.2774C29.481 36.3567 29.5607 36.4359 29.6428 36.5176C30.1657 37.11 30.2411 37.5385 30.223 38.3163C30.1641 39.2319 29.9717 40.1358 29.8047 41.0358C29.7497 41.337 29.695 41.6383 29.6409 41.9396C29.6073 42.1256 29.5733 42.3115 29.5386 42.4973C29.4612 42.9225 29.4009 43.3203 29.4219 43.7549C29.5465 43.69 29.6711 43.6251 29.7996 43.5582C30.2651 43.3158 30.7307 43.0734 31.1963 42.831C31.3972 42.7264 31.5981 42.6217 31.799 42.5171C32.089 42.3661 32.379 42.2151 32.6689 42.0642C32.8021 41.9948 32.8021 41.9948 32.938 41.924C33.1077 41.8357 33.2776 41.7481 33.448 41.6611C33.6032 41.5796 33.7565 41.4939 33.9069 41.4037C34.487 41.0681 34.9937 40.9878 35.6563 41.0913C35.9947 41.2013 36.295 41.356 36.606 41.5292C36.6914 41.5744 36.7769 41.6197 36.8649 41.6662C37.1354 41.8101 37.4041 41.957 37.6729 42.1041C37.8525 42.2002 38.0323 42.2962 38.2123 42.3919C39.1151 42.874 40.0125 43.3667 40.9063 43.8659C40.8772 43.7263 40.8482 43.5867 40.8182 43.4428C40.6286 42.5172 40.4438 41.5904 40.3115 40.6543C40.2914 40.516 40.2712 40.3777 40.2504 40.2351C40.2499 39.8184 40.3274 39.6406 40.5781 39.3156C40.8902 39.1573 41.1069 39.1702 41.4531 39.2046C41.8356 39.4396 41.9784 39.5833 42.1223 40.0175C42.147 40.1616 42.1716 40.3056 42.197 40.4541C42.2108 40.5321 42.2245 40.6101 42.2388 40.6905C42.2675 40.8554 42.2951 41.0206 42.3216 41.1858C42.3619 41.4355 42.4055 41.6843 42.4497 41.9333C42.8316 44.1408 42.8316 44.1408 42.4785 44.8509C42.1106 45.3421 41.7852 45.5777 41.2002 45.7457C40.1019 45.7646 39.0788 45.0579 38.1309 44.5526C37.9822 44.4742 37.8335 44.3958 37.6848 44.3174C37.5387 44.2402 37.3926 44.163 37.2465 44.0857C37.1398 44.0296 37.1398 44.0296 37.0311 43.9724C36.7049 43.7996 36.3863 43.6224 36.0701 43.4309C35.9139 43.3366 35.9139 43.3366 35.7545 43.2403C35.6216 43.1561 35.6216 43.1561 35.4859 43.0701C34.9928 42.9002 34.5917 43.1815 34.1505 43.4016C33.9973 43.4816 33.8444 43.5621 33.6918 43.6431C33.5688 43.7076 33.5688 43.7076 33.4434 43.7733C33.1827 43.9101 32.9224 44.0475 32.6621 44.185C32.4025 44.3215 32.1428 44.4579 31.8832 44.5943C31.7222 44.6789 31.5612 44.7637 31.4003 44.8485C31.1786 44.9654 30.9565 45.0816 30.7344 45.1977C30.6568 45.2388 30.5793 45.2799 30.4994 45.3222C30.3851 45.3819 30.3851 45.3819 30.2684 45.4427C30.2005 45.4785 30.1325 45.5142 30.0625 45.551C29.5585 45.7759 29.1229 45.7914 28.5879 45.6417C28.1201 45.3604 27.8109 45.1402 27.5625 44.6428C27.3888 43.3523 27.7152 42.0221 27.9453 40.7584C28.0004 40.4512 28.0551 40.1439 28.1091 39.8365C28.1426 39.6469 28.1766 39.4574 28.2114 39.2681C28.2949 38.7993 28.3695 38.3509 28.3281 37.8728C28.098 37.5543 28.098 37.5543 27.7813 37.2693C27.6797 37.1711 27.5782 37.0728 27.4736 36.9715C27.2245 36.7401 26.9698 36.5159 26.714 36.2922C26.1771 35.8174 25.6735 35.3106 25.1699 34.8C25.0299 34.6599 25.0299 34.6599 24.8871 34.5171C24.798 34.4269 24.7089 34.3367 24.6171 34.2437C24.4965 34.1221 24.4965 34.1221 24.3736 33.9981C23.9857 33.5527 23.873 33.1393 23.8438 32.5456C23.9725 31.9267 24.2298 31.5044 24.7188 31.1028C25.079 30.9354 25.4113 30.8421 25.8027 30.7861C25.9582 30.7633 25.9582 30.7633 26.1168 30.7401C26.2275 30.7246 26.3381 30.7091 26.4521 30.6931C26.5668 30.6765 26.6815 30.6598 26.7997 30.6426C27.1655 30.5896 27.5315 30.5375 27.8975 30.4855C28.2638 30.4329 28.6301 30.3801 28.9964 30.3271C29.2241 30.2942 29.4518 30.2616 29.6796 30.2293C29.783 30.2145 29.8863 30.1996 29.9927 30.1844C30.0833 30.1715 30.174 30.1586 30.2674 30.1453C30.3493 30.1317 30.4312 30.118 30.5156 30.104C30.593 30.0937 30.6704 30.0835 30.7501 30.0729C31.0409 29.9585 31.091 29.8042 31.225 29.5223C31.2736 29.4223 31.3222 29.3222 31.3722 29.2191C31.4233 29.1101 31.4743 29.0011 31.5269 28.8888C31.5808 28.7772 31.6348 28.6656 31.6903 28.5507C31.863 28.1928 32.0337 27.834 32.2041 27.4751C32.3743 27.1182 32.545 26.7615 32.7167 26.4054C32.8236 26.1836 32.9295 25.9614 33.0345 25.7387C33.3407 25.1014 33.6394 24.4824 34.2322 24.0719C34.507 23.9823 34.7455 23.9624 35.0342 23.9583Z" fill="#ED640F"/>
<path d="M17.5 31.6578C18.06 31.9845 18.2167 32.3148 18.4361 32.9272C18.9484 34.4644 18.9484 34.4644 20.0793 35.5141C20.9281 35.7818 21.8335 35.8239 22.7167 35.8358C23.1914 35.8875 23.5834 36.0278 23.898 36.4037C24.1119 36.8476 24.2617 37.2445 24.162 37.7489C23.754 38.712 22.7099 39.4576 21.954 40.1515C21.7784 40.3131 21.6051 40.4774 21.4375 40.6475C21.436 40.8874 21.436 40.8874 21.4841 41.1595C21.4991 41.2614 21.5141 41.3633 21.5296 41.4684C21.5466 41.5752 21.5635 41.682 21.5811 41.792C21.5968 41.8975 21.6125 42.003 21.6287 42.1117C21.6873 42.5 21.7473 42.8867 21.8243 43.2717C21.9494 43.9169 21.9699 44.5382 21.7041 45.1423C21.369 45.491 21.1379 45.6287 20.6719 45.7527C19.9181 45.7171 19.3452 45.3426 18.7175 44.9528C17.7607 44.3268 17.7607 44.3268 16.6773 44.097C16.1843 44.2382 15.7902 44.5182 15.3891 44.8344C15.1089 45.0475 14.8054 45.2002 14.4922 45.3573C14.3881 45.4097 14.2841 45.4621 14.1769 45.516C13.6378 45.7528 13.2309 45.8283 12.6602 45.6279C12.2647 45.3543 11.9678 45.0802 11.8638 44.5926C11.8709 43.9492 11.925 43.3811 12.0671 42.7536C12.3855 41.5857 12.3855 41.5857 12.2707 40.4223C11.9958 40.0431 11.6288 39.8032 11.2388 39.5576C10.9127 39.3351 10.6496 39.0528 10.377 38.7677C10.2797 38.6706 10.1824 38.5734 10.0822 38.4733C9.75275 38.1037 9.63608 37.8833 9.59082 37.3873C9.63461 36.8719 9.7598 36.5013 10.139 36.144C10.4592 35.9432 10.7382 35.889 11.1084 35.8197C11.1792 35.8042 11.2501 35.7886 11.3231 35.7726C11.7412 35.6858 12.1205 35.6492 12.5474 35.6675C13.1232 35.6714 13.6218 35.6597 14.1094 35.3203C14.6468 34.598 14.9741 33.7647 15.3146 32.935C15.5629 32.3397 15.749 31.9912 16.2969 31.6578C16.7128 31.5171 17.0867 31.5183 17.5 31.6578ZM16.8437 33.8775C16.8129 33.9373 16.7821 33.9971 16.7503 34.0587C16.6084 34.3337 16.4663 34.6085 16.3242 34.8833C16.2515 35.0244 16.2515 35.0244 16.1772 35.1683C16.0808 35.3546 15.9835 35.5404 15.8852 35.7257C15.8014 35.8871 15.7213 36.0505 15.6472 36.2168C15.4606 36.6122 15.3199 36.7592 14.9331 36.9629C14.3261 37.1499 13.6961 37.2412 13.0703 37.3388C12.9491 37.3585 12.8278 37.3781 12.7029 37.3984C12.4062 37.4464 12.1094 37.4936 11.8125 37.5399C12.2742 38.1114 12.7643 38.6049 13.3179 39.0831C13.8344 39.5456 14.0892 39.925 14.1401 40.6288C14.1211 41.1128 14.038 41.5813 13.9453 42.0556C13.8039 42.7883 13.8039 42.7883 13.7812 43.533C14.3222 43.3705 14.7877 43.1355 15.2783 42.8602C16.003 42.4565 16.5552 42.1994 17.3906 42.3122C17.787 42.4561 18.1492 42.6495 18.5186 42.8533C18.6148 42.9043 18.711 42.9554 18.8101 43.008C18.9883 43.1028 19.1661 43.1983 19.3433 43.295C19.5656 43.4153 19.7897 43.5307 20.0156 43.644C19.9661 43.046 19.8963 42.4589 19.79 41.8683C19.539 40.3553 19.539 40.3553 19.8721 39.7661C20.1318 39.4175 20.4061 39.1158 20.7129 38.8093C20.7657 38.7564 20.8186 38.7035 20.873 38.649C21.229 38.2955 21.5925 37.9625 21.9844 37.6509C21.6325 37.446 21.3262 37.3809 20.9252 37.3297C20.8057 37.3129 20.6863 37.2961 20.5631 37.2787C20.3126 37.2449 20.062 37.2122 19.8112 37.1808C18.9061 37.0503 18.9061 37.0503 18.4882 36.7587C18.1867 36.3136 17.9422 35.8518 17.7051 35.3688C17.6117 35.1812 17.518 34.9938 17.4239 34.8065C17.3833 34.7241 17.3427 34.6416 17.3008 34.5566C17.1668 34.3122 17.0138 34.0972 16.8437 33.8775Z" fill="#ED640F"/>
<path d="M53.9219 31.6577C54.3964 31.974 54.6086 32.3042 54.8571 32.817C54.8903 32.8848 54.9235 32.9526 54.9578 33.0225C55.0272 33.1649 55.096 33.3076 55.1642 33.4506C55.2689 33.67 55.3755 33.8884 55.4824 34.1067C56 35.1728 56 35.1728 56 35.4312C56.0785 35.4353 56.1571 35.4394 56.238 35.4437C57.001 35.4929 57.7529 35.5797 58.5088 35.6947C58.5967 35.7074 58.6847 35.72 58.7753 35.733C59.3848 35.8297 59.9305 35.956 60.3613 36.4369C60.5759 37.0053 60.5848 37.599 60.375 38.1711C60.1243 38.4652 59.8494 38.7062 59.5594 38.9596C59.4676 39.0405 59.3758 39.1213 59.2812 39.2046C59.2214 39.2568 59.1616 39.3089 59.0999 39.3627C58.2903 40.0306 58.2903 40.0306 57.7812 40.917C57.809 41.2137 57.8843 41.4714 57.9688 41.7572C58.0162 42.0034 58.0571 42.2502 58.0969 42.4978C58.1247 42.6699 58.154 42.8418 58.1854 43.0132C58.3126 43.7319 58.4349 44.4512 58.126 45.1283C57.7994 45.4852 57.5546 45.6179 57.0938 45.7526C56.3857 45.7219 55.8497 45.4332 55.2344 45.1075C55.1399 45.0588 55.0454 45.0101 54.9481 44.9599C54.5275 44.7416 54.1208 44.5196 53.7236 44.26C53.3961 44.0485 53.3961 44.0485 53.1156 44.1688C52.8242 44.3117 52.539 44.4611 52.2552 44.6189C52.1474 44.6778 52.0396 44.7367 51.9286 44.7973C51.7042 44.9204 51.4803 45.0444 51.2569 45.1693C50.6381 45.5051 50.1444 45.7405 49.4375 45.7526C48.9255 45.5728 48.6227 45.3366 48.3438 44.8647C48.1802 44.0839 48.3011 43.4084 48.4463 42.6312C48.4888 42.3975 48.5308 42.1637 48.5723 41.9298C48.5914 41.8273 48.6104 41.7248 48.63 41.6193C48.677 41.2757 48.7139 40.9934 48.6719 40.6474C48.4948 40.412 48.3365 40.2339 48.1254 40.0357C48.0698 39.9807 48.0143 39.9258 47.957 39.8692C47.7798 39.6946 47.6005 39.5224 47.4209 39.3503C47.2421 39.1766 47.0637 39.0025 46.886 38.8277C46.7754 38.7193 46.6641 38.6115 46.5522 38.5046C46.1572 38.1208 46.0579 37.8986 46.0127 37.3387C46.0197 36.8522 46.1687 36.5803 46.4844 36.208C46.9264 35.8749 47.2595 35.8342 47.8041 35.8187C49.4356 35.7749 49.4356 35.7749 50.8164 35.0338C51.2544 34.356 51.5084 33.6216 51.7424 32.8509C51.9249 32.3012 52.1367 31.9671 52.6367 31.6646C53.1501 31.517 53.4036 31.5305 53.9219 31.6577ZM53.2656 33.8774C53.2348 33.9378 53.2039 33.9982 53.1722 34.0604C53.0305 34.3372 52.8883 34.6136 52.7461 34.8901C52.6733 35.0326 52.6733 35.0326 52.5991 35.178C51.8493 36.6325 51.8493 36.6325 51.2969 36.9849C51.0014 37.0599 51.0014 37.0599 50.6675 37.1067C50.5471 37.1247 50.4266 37.1427 50.3025 37.1611C50.1772 37.1785 50.0519 37.1959 49.9229 37.2138C49.6742 37.2491 49.4257 37.285 49.1773 37.3218C49.0673 37.3371 48.9572 37.3524 48.8438 37.3682C48.5381 37.4157 48.5381 37.4157 48.2344 37.6508C48.2962 37.7118 48.358 37.7728 48.4217 37.8356C48.7019 38.113 48.9808 38.3917 49.2598 38.6705C49.357 38.7664 49.4543 38.8623 49.5546 38.9612C49.6476 39.0545 49.7407 39.1479 49.8365 39.244C49.9225 39.3295 50.0084 39.4149 50.0969 39.5029C50.3834 39.8438 50.528 40.1391 50.5364 40.5888C50.5257 40.6837 50.5149 40.7786 50.5039 40.8763C50.4922 40.9821 50.4805 41.088 50.4684 41.1971C50.4059 41.6514 50.3302 42.1027 50.2471 42.5536C50.2007 42.884 50.1958 43.1996 50.2031 43.5329C50.5946 43.4193 50.9395 43.2746 51.2917 43.0708C51.3686 43.0265 51.4454 42.9821 51.5246 42.9364C51.6818 42.8445 51.8382 42.7511 51.9937 42.6563C52.6008 42.3108 53.1203 42.1736 53.8125 42.3121C54.2776 42.495 54.7048 42.7294 55.1387 42.978C55.2537 43.0415 55.3688 43.1051 55.4873 43.1705C55.7688 43.3263 56.0489 43.4841 56.3281 43.6439C56.4758 43.1945 56.3658 42.8274 56.2803 42.3746C55.9281 40.3203 55.9281 40.3203 56.2311 39.7539C56.4302 39.5117 56.6459 39.307 56.875 39.0936C56.998 38.9692 57.1205 38.8441 57.2424 38.7186C57.5912 38.3598 57.9433 38.0047 58.2969 37.6508C57.9468 37.414 57.7676 37.3804 57.3578 37.3257C57.2379 37.3084 57.1181 37.2911 56.9946 37.2732C56.7427 37.2384 56.4906 37.2043 56.2384 37.1709C56.0582 37.1445 56.0582 37.1445 55.8744 37.1176C55.7648 37.1027 55.6552 37.0879 55.5423 37.0725C55.0474 36.9317 54.7762 36.6843 54.5049 36.2461C54.4528 36.1368 54.4007 36.0275 54.347 35.915C54.2895 35.7962 54.2321 35.6775 54.1729 35.5551C54.1149 35.4318 54.0568 35.3085 53.9971 35.1814C53.9369 35.0564 53.8768 34.9314 53.8148 34.8025C53.667 34.4947 53.5205 34.1863 53.375 33.8774C53.3389 33.8774 53.3028 33.8774 53.2656 33.8774Z" fill="#ED640F"/>
</g>
<defs>
<clipPath id="clip0_2055_520">
<rect width="56" height="23" fill="white" transform="translate(7 24)"/>
</clipPath>
</defs>
</svg>
