<svg width="15" height="15" viewBox="0 0 15 15" fill="none" xmlns="http://www.w3.org/2000/svg">
<path d="M7.5 13.75C7.5 13.75 12.5 10 12.5 6.25C12.5 3.125 10 1.25 7.5 1.25C5 1.25 2.5 3.125 2.5 6.25C2.5 10 7.5 13.75 7.5 13.75ZM7.5 8.125C7.00272 8.125 6.52581 7.92746 6.17417 7.57583C5.82254 7.22419 5.625 6.74728 5.625 6.25C5.625 5.75272 5.82254 5.27581 6.17417 4.92417C6.52581 4.57254 7.00272 4.375 7.5 4.375C7.99728 4.375 8.47419 4.57254 8.82583 4.92417C9.17746 5.27581 9.375 5.75272 9.375 6.25C9.375 6.74728 9.17746 7.22419 8.82583 7.57583C8.47419 7.92746 7.99728 8.125 7.5 8.125Z" stroke="#828282" stroke-width="1.3"/>
</svg>
